<svg width="386" height="390" viewBox="0 0 386 390" fill="none" xmlns="http://www.w3.org/2000/svg">
<g filter="url(#filter0_d_415_691)">
<path d="M177.805 371.378C79.0536 362.661 5.71522 279.522 13.9989 185.683C22.2826 91.8432 110.973 1.06674 209.724 9.784C308.475 18.5013 379.892 123.411 371.608 217.251C363.325 311.09 276.556 380.095 177.805 371.378Z" fill="#132E90" fill-opacity="0.9" shape-rendering="crispEdges"/>
<path d="M9.51633 185.287C0.995333 281.815 76.4004 366.944 177.409 375.86C278.417 384.777 367.57 314.174 376.091 217.646C380.341 169.502 364.157 118.734 334.41 78.9038C304.649 39.0556 261.027 9.79523 210.12 5.30143C159.213 0.807631 111.14 21.9735 74.8584 55.9919C38.5933 89.9948 13.7663 137.143 9.51633 185.287Z" stroke="black" stroke-width="9" shape-rendering="crispEdges"/>
</g>
<defs>
<filter id="filter0_d_415_691" x="0.358444" y="0.201782" width="384.903" height="388.918" filterUnits="userSpaceOnUse" color-interpolation-filters="sRGB">
<feFlood flood-opacity="0" result="BackgroundImageFix"/>
<feColorMatrix in="SourceAlpha" type="matrix" values="0 0 0 0 0 0 0 0 0 0 0 0 0 0 0 0 0 0 127 0" result="hardAlpha"/>
<feOffset dy="4"/>
<feGaussianBlur stdDeviation="2"/>
<feComposite in2="hardAlpha" operator="out"/>
<feColorMatrix type="matrix" values="0 0 0 0 0 0 0 0 0 0 0 0 0 0 0 0 0 0 0.25 0"/>
<feBlend mode="normal" in2="BackgroundImageFix" result="effect1_dropShadow_415_691"/>
<feBlend mode="normal" in="SourceGraphic" in2="effect1_dropShadow_415_691" result="shape"/>
</filter>
</defs>
</svg>
