<svg width="389" height="385" viewBox="0 0 389 385" fill="none" xmlns="http://www.w3.org/2000/svg">
<g filter="url(#filter0_d_415_451)">
<path d="M376 188.5C376 287.635 299.632 368 205.428 368C111.224 368 13 287.635 13 188.5C13 89.3649 111.224 9 205.428 9C299.632 9 376 89.3649 376 188.5Z" fill="#132E90" fill-opacity="0.9" shape-rendering="crispEdges"/>
<path d="M205.428 372.5C302.331 372.5 380.5 289.901 380.5 188.5C380.5 87.0987 302.331 4.5 205.428 4.5C157.097 4.5 107.948 25.085 70.888 58.2196C33.8112 91.3692 8.5 137.395 8.5 188.5C8.5 239.605 33.8112 285.631 70.888 318.78C107.948 351.915 157.097 372.5 205.428 372.5Z" stroke="black" stroke-width="9" shape-rendering="crispEdges"/>
</g>
<defs>
<filter id="filter0_d_415_451" x="0" y="0" width="389" height="385" filterUnits="userSpaceOnUse" color-interpolation-filters="sRGB">
<feFlood flood-opacity="0" result="BackgroundImageFix"/>
<feColorMatrix in="SourceAlpha" type="matrix" values="0 0 0 0 0 0 0 0 0 0 0 0 0 0 0 0 0 0 127 0" result="hardAlpha"/>
<feOffset dy="4"/>
<feGaussianBlur stdDeviation="2"/>
<feComposite in2="hardAlpha" operator="out"/>
<feColorMatrix type="matrix" values="0 0 0 0 0 0 0 0 0 0 0 0 0 0 0 0 0 0 0.25 0"/>
<feBlend mode="normal" in2="BackgroundImageFix" result="effect1_dropShadow_415_451"/>
<feBlend mode="normal" in="SourceGraphic" in2="effect1_dropShadow_415_451" result="shape"/>
</filter>
</defs>
</svg>
