<svg width="80" height="80" viewBox="0 0 80 80" fill="none" xmlns="http://www.w3.org/2000/svg">
<path d="M72.9688 9.53125H7.03125C3.15906 9.53125 0 12.6869 0 16.5625V63.4375C0 67.3 3.145 70.4688 7.03125 70.4688H72.9688C76.8313 70.4688 80 67.3237 80 63.4375V16.5625C80 12.7 76.855 9.53125 72.9688 9.53125ZM71.9978 14.2188L40.1491 46.0677L8.02484 14.2188H71.9978ZM4.6875 62.4669V17.5108L27.2623 39.892L4.6875 62.4669ZM8.00203 65.7812L30.5911 43.1922L38.5062 51.0394C39.4225 51.9478 40.9011 51.9448 41.8136 51.0322L49.5312 43.3145L71.998 65.7812H8.00203ZM75.3125 62.4667L52.8458 40L75.3125 17.5331V62.4667Z" fill="black"/>
</svg>
