<svg width="193" height="93" viewBox="0 0 193 93" fill="none" xmlns="http://www.w3.org/2000/svg">
<path d="M37.5965 22.7688L40.0115 23.4138L45.4285 3.14583C45.6595 2.28283 45.4125 1.36183 44.7805 0.730828C44.1475 0.0998276 43.2265 -0.146169 42.3645 0.085831L22.1125 5.53283H22.1135L1.85151 10.9758C0.988512 11.2068 0.315513 11.8818 0.0845133 12.7448C-0.145487 13.6078 0.101508 14.5278 0.733508 15.1588L15.5765 29.9768L15.5755 29.9758L30.4155 44.8018C31.0475 45.4328 31.9685 45.6798 32.8305 45.4478C33.6935 45.2158 34.3675 44.5418 34.5975 43.6788L40.0115 23.4138L37.5965 22.7688L35.1815 22.1238L30.8855 38.2038L19.1095 26.4388L19.1085 26.4378L7.33151 14.6808L23.4105 10.3618H23.4115L39.4795 6.03983L35.1815 22.1238L37.5965 22.7688Z" fill="#E86BBB"/>
<path d="M147.154 82.0078C146.687 82.1737 146.376 82.191 146.04 82.1515C145.748 82.1142 145.422 82.0115 145.029 81.8128C144.344 81.4706 143.495 80.8092 142.556 79.9813C141.132 78.7501 139.53 77.1527 137.372 76.0054C136.293 75.4364 135.05 74.9949 133.669 74.863C132.291 74.7273 130.802 74.9148 129.302 75.4638C128.006 75.9358 127.336 77.3713 127.808 78.6681C128.281 79.9658 129.716 80.6343 131.013 80.1623C131.778 79.8858 132.392 79.8051 132.945 79.8238C133.431 79.8419 133.882 79.9406 134.354 80.1178C135.176 80.424 136.06 81.0047 136.994 81.7685C138.406 82.9048 139.851 84.4233 141.688 85.6436C142.612 86.2469 143.67 86.7814 144.908 87.0298C146.143 87.2839 147.536 87.1981 148.864 86.7063C150.161 86.2343 150.831 84.7997 150.359 83.502C149.886 82.2043 148.451 81.5358 147.154 82.0078Z" fill="#E86BBB"/>
<path d="M174.473 72.0647C174.006 72.2306 173.695 72.2479 173.359 72.2084C173.067 72.1711 172.741 72.0684 172.348 71.8697C171.663 71.5274 170.814 70.8657 169.875 70.0382C168.452 68.8067 166.85 67.2102 164.692 66.0619C163.613 65.4939 162.37 65.0523 160.989 64.9205C159.611 64.7848 158.122 64.9723 156.623 65.5209C155.326 65.9933 154.657 67.4285 155.129 68.7252C155.602 70.0229 157.036 70.6917 158.334 70.2194C159.098 69.9432 159.712 69.8626 160.265 69.8813C160.75 69.8997 161.202 69.9981 161.674 70.1753C162.495 70.4818 163.38 71.0622 164.314 71.826C165.727 72.9623 167.17 74.4812 169.008 75.7001C169.931 76.3038 170.989 76.838 172.228 77.0863C173.462 77.3408 174.855 77.255 176.183 76.7631C177.481 76.2908 178.15 74.8566 177.677 73.5589C177.205 72.2611 175.771 71.5923 174.473 72.0647Z" fill="#E86BBB"/>
<path d="M148.864 86.7063C150.024 86.2896 151.028 85.6112 151.781 84.7858C152.444 84.0648 152.915 83.256 153.257 82.4504C153.854 81.0327 154.102 79.6144 154.315 78.265C154.617 76.2429 154.854 74.3557 155.416 73.019C155.693 72.3468 156.023 71.8171 156.459 71.3721C156.898 70.9293 157.456 70.542 158.334 70.2194C159.63 69.7474 160.3 68.3128 159.828 67.0151C159.356 65.7183 157.92 65.0489 156.623 65.5209C155.316 65.9948 154.191 66.6702 153.283 67.4935C152.486 68.2122 151.862 69.0343 151.386 69.8822C150.554 71.3718 150.151 72.9146 149.873 74.3533C149.471 76.511 149.306 78.5069 148.891 79.8358C148.691 80.5015 148.452 80.9724 148.2 81.2855C147.94 81.5973 147.685 81.8061 147.154 82.0079C145.857 82.4802 145.188 83.9144 145.66 85.2121C146.132 86.5098 147.567 87.1786 148.864 86.7063Z" fill="#E86BBB"/>
<path d="M176.183 76.7629C177.342 76.3453 178.347 75.6678 179.1 74.8415C179.762 74.1214 180.233 73.3126 180.575 72.5061C181.172 71.0893 181.419 69.6704 181.632 68.3211C181.934 66.2999 182.172 64.4118 182.733 63.0763C183.011 62.4038 183.34 61.8741 183.776 61.4294C184.216 60.9862 184.773 60.5993 185.65 60.2767L184.798 57.934L185.453 60.34C185.55 60.3133 185.618 60.2887 185.65 60.2767L184.798 57.934L185.453 60.34C186.785 59.9765 187.572 58.6026 187.208 57.2706C186.846 55.9383 185.472 55.1517 184.14 55.5152C184.042 55.5422 183.974 55.5659 183.94 55.5782C182.634 56.0527 181.509 56.7272 180.6 57.5508C179.804 58.2682 179.18 59.0913 178.704 59.9391C177.87 61.4291 177.469 62.9715 177.191 64.4103C176.789 66.5667 176.623 68.5639 176.209 69.8919C176.009 70.5585 175.771 71.029 175.518 71.3425C175.258 71.6542 175.003 71.863 174.472 72.0648C173.175 72.5368 172.507 73.972 172.979 75.2697C173.451 76.5665 174.885 77.2353 176.183 76.7629Z" fill="#E86BBB"/>
<path d="M109.105 41.071L107.775 38.954C107.143 39.35 106.46 39.533 105.773 39.534C105.146 39.534 104.523 39.377 103.972 39.079C103.421 38.78 102.944 38.348 102.581 37.772C102.184 37.139 102.001 36.456 102 35.768C102 35.143 102.157 34.52 102.454 33.969C102.753 33.418 103.185 32.941 103.761 32.578C104.389 32.184 105.071 32.001 105.759 32C106.385 32 107.01 32.157 107.561 32.455C108.113 32.754 108.591 33.186 108.953 33.761L108.954 33.763C109.35 34.392 109.532 35.073 109.533 35.76C109.533 36.387 109.376 37.011 109.078 37.563C108.779 38.115 108.347 38.593 107.773 38.955L107.775 38.954L109.105 41.071L110.437 43.187C111.754 42.359 112.786 41.223 113.478 39.938C114.171 38.652 114.533 37.217 114.533 35.76C114.534 34.167 114.095 32.54 113.185 31.098L113.186 31.1C112.358 29.781 111.222 28.748 109.936 28.055C108.65 27.361 107.215 27 105.759 27C104.166 26.999 102.541 27.438 101.099 28.345C99.781 29.173 98.748 30.308 98.055 31.593C97.362 32.878 97 34.313 97 35.768C96.999 37.363 97.439 38.99 98.348 40.433C99.175 41.75 100.31 42.784 101.595 43.478C102.881 44.172 104.316 44.533 105.773 44.534C107.366 44.535 108.992 44.095 110.435 43.188L110.437 43.187L109.105 41.071Z" fill="#00160A"/>
</svg>
