<svg width="261" height="209" viewBox="0 0 261 209" fill="none" xmlns="http://www.w3.org/2000/svg">
<path d="M61.7895 82.2346C61.7895 82.2346 27.7644 75.6475 17.3058 120.498C6.84418 165.349 6.84418 206.943 6.84418 206.943L126.817 208.635C126.817 208.635 127.835 101.246 108.323 90.4443C88.815 79.6425 61.7895 82.2346 61.7895 82.2346Z" fill="#E6E7E8"/>
<path d="M48.1668 117.38C48.1668 117.38 54.6906 149.806 56.1356 161.129C57.5807 172.451 42.3052 176.452 42.3052 176.452C42.3052 176.452 37.0067 167.096 37.109 166.138C37.2114 165.178 41.0318 117.383 41.0318 117.383H48.1668V117.38Z" fill="black"/>
<path d="M1.00075 174.905C1.00075 174.905 9.56874 150.131 51.4001 155.011C51.4001 155.011 41.4684 179.671 1.00075 174.905Z" fill="black"/>
<path d="M99.1261 132.345C99.1261 132.345 101.023 138.044 104.837 136.439C108.651 134.832 112.448 131.779 112.448 131.779C112.448 131.779 117.072 128.687 119.363 133.612C119.363 133.612 121.1 137.159 114.435 142.301C114.435 142.301 117.587 146.738 111.623 149.981C111.623 149.981 111.46 155.899 104.687 156.812C104.687 156.812 106.692 159.404 103.455 160.355C100.219 161.306 94.9384 160.894 91.3679 160.442C91.3679 160.442 88.6855 159.096 87.4241 161.032C86.1627 162.968 81.1532 202.123 52.5019 205.733C41.9199 207.063 23.2576 208.102 15.376 194.979C15.376 194.979 7.22649 182.347 6.75384 154.355C6.75384 154.355 4.42973 119.68 12.6063 109.257C12.6063 109.257 20.9907 93.217 32.6174 93.8041C32.6174 93.8041 35.7031 98.5818 36.3955 103.658C37.088 108.736 39.0147 119.794 39.0147 119.794C39.0147 119.794 41.2335 162.411 42.4949 163.724C43.7563 165.036 45.379 168.583 49.6991 165.428C54.0192 162.273 76.24 145.95 76.24 145.95C76.24 145.95 79.8857 141.413 80.6895 139.197C81.4934 136.981 88.6494 128.073 99.1291 132.345H99.1261Z" fill="white"/>
<path d="M80.5842 139.348C80.5842 139.348 85.1512 133.128 86.3313 132.047C87.5114 130.966 91.1482 124.054 104.783 127.637C118.418 131.222 95.101 136.461 95.101 136.461L80.5842 139.345V139.348Z" fill="white"/>
<path d="M108.718 128.654C108.718 128.654 91.8557 120.291 82.8421 136.051L75.948 146.115L47.956 165.834C47.956 165.834 42.8532 167.764 42.3023 161.836C41.7513 155.909 37.6149 100.063 34.8572 96.7547C32.0996 93.4461 29.6189 93.8284 29.6189 93.8284" stroke="black" stroke-miterlimit="10"/>
<path d="M121.681 24.3123C121.681 24.3123 123.508 50.7447 119.321 61.7603C119.321 61.7603 114.567 83.6378 96.6093 88.5841L84.4558 90.1436C84.4558 90.1436 87.4573 104.128 81.1382 108.222C75.8728 111.633 67.0579 115.661 57.5175 107.9C54.0434 105.076 51.4784 101.289 49.9521 97.0799C48.5341 93.1692 46.788 87.8285 46.8332 85.3207L51.3821 84.0683L58.7519 65.6107C58.9385 65.1351 59.0138 64.6143 58.9144 64.1145C58.791 63.4823 58.3996 62.8471 57.2586 63.1933C56.6686 63.3739 50.9937 61.9259 51.4423 54.0292C51.8909 46.1296 55.0158 36.505 65.3931 45.8707C65.3931 45.8707 66.796 48.6163 66.2662 53.1351C66.2662 53.1351 65.6911 56.2781 67.5938 55.4201C69.4965 54.5621 71.5858 53.5927 72.9827 41.686C72.9827 41.686 117.502 48.8571 121.681 24.3123Z" fill="white"/>
<path d="M121.211 18.0681C121.211 18.0681 129.849 47.46 72.9826 41.6857C72.9826 41.6857 71.9079 55.1368 67.9852 55.4198C64.0624 55.7028 67.7865 52.0871 66.3414 47.6225C64.8994 43.1579 53.7664 35.7128 51.6229 50.8709C50.497 58.8368 53.4744 62.4434 56.6415 63.196C57.5988 63.4218 59.4172 62.0219 58.8572 65.8543L51.3791 84.5196" stroke="black" stroke-miterlimit="10"/>
<path d="M121.681 24.3123C121.681 24.3123 130.047 87.678 87.8396 89.8907C82.8331 90.1527 77.956 87.9911 74.8883 85.2665C71.2847 82.0663 68.9304 75.121 67.5968 65.099" stroke="black" stroke-miterlimit="10"/>
<path d="M82.4598 89.2854L80.1056 96.2217" stroke="black" stroke-miterlimit="10"/>
<path d="M109.759 57.3499C110.777 57.3499 111.602 56.5251 111.602 55.5075C111.602 54.49 110.777 53.665 109.759 53.665C108.742 53.665 107.917 54.49 107.917 55.5075C107.917 56.5251 108.742 57.3499 109.759 57.3499Z" fill="#231F20"/>
<path d="M88.7217 55.5074C89.7393 55.5074 90.5642 54.6825 90.5642 53.6649C90.5642 52.6474 89.7393 51.8225 88.7217 51.8225C87.7042 51.8225 86.8793 52.6474 86.8793 53.6649C86.8793 54.6825 87.7042 55.5074 88.7217 55.5074Z" fill="#231F20"/>
<path d="M115.254 51.5332C115.254 51.5332 115.281 46.0812 108.636 47.5022" stroke="#231F20" stroke-miterlimit="10"/>
<path d="M92.5933 45.994C92.5933 45.994 89.5677 41.4571 84.8532 46.3492" stroke="#231F20" stroke-miterlimit="10"/>
<path d="M103.287 54.8601L102.63 71.5325L96.6093 69.7262" stroke="black" stroke-miterlimit="10"/>
<path d="M120.895 47.8756C117.731 49.5375 113.426 36.6855 113.426 36.6855C104.804 44.9284 72.9826 41.686 72.9826 41.686C72.9826 41.686 71.2064 50.5701 70.2129 53.5415C69.2194 56.5129 66.233 54.8601 66.233 54.8601C66.233 54.8601 66.3775 50.7025 66.3414 47.6227C66.3053 44.546 60.9766 42.7638 60.9766 42.7638C51.7523 38.1275 51.4392 52.56 51.7042 57.5696C51.9661 62.5821 58.3785 63.1932 58.3785 63.1932C58.9475 64.6172 58.9354 66.2068 58.3454 67.6218L52.2701 82.3011C52.2701 82.3011 36.3835 82.0603 31.5998 75.0427C27.37 68.841 30.6816 62.1034 35.8296 59.8033C40.9776 57.5033 45.0208 41.9569 48.6966 24.3062C52.3725 6.65541 71.2004 2.2992 84.4588 0.330307C91.8948 -0.771549 100.4 1.07988 106.595 2.98856C113.598 5.14711 119.82 9.39196 124.12 15.3287C126.829 19.0708 128.921 23.5084 128.121 27.7232C126.2 37.8416 132.495 74.9885 126.465 86.9223C123.692 92.4135 98.7708 87.6177 98.7708 87.6177C98.7708 87.6177 116.455 81.985 120.874 54.6614L120.898 47.8726L120.895 47.8756Z" fill="black"/>
<path d="M84.1517 75.0459C84.1517 75.0459 89.1311 84.3725 96.9826 77.8697" stroke="black" stroke-miterlimit="10"/>
<path d="M1.02179 174.116C1.02179 174.116 9.56872 152.549 51.3971 155.011L49.3981 125.183C49.3981 120.935 45.8246 101.77 35.7573 98.2507" stroke="black" stroke-miterlimit="10"/>
<path d="M147.843 139.083L134.78 154.027L100.68 124.024L103.922 120.068L94.824 112.924L94.4748 112.65L90.6545 116.97L83.8747 111.967L100.68 94.4124L106.869 99.7169L103.184 103.661L103.431 103.883L111.596 111.277L115.639 107.306L147.843 139.083Z" fill="#F480FF"/>
<path d="M153.701 145.152L155.604 147.985L153.259 150.706L155.947 154.322L150.862 159.774L146.662 157.417L144.158 160.512C144.158 160.512 140.915 159.112 140.915 158.889C140.915 158.666 153.701 145.149 153.701 145.149V145.152Z" fill="#F480FF"/>
<path d="M149.17 136.048L155.607 142.999L139.416 161.309L131.119 155.43L149.17 136.048Z" fill="#FFC600"/>
<path d="M157.868 182.916C121.537 199.718 108.934 164.419 103.922 155.279C101.887 151.567 102.185 146.473 103.26 141.738C104.398 136.728 106.397 132.113 107.414 129.949C107.802 129.124 108.049 128.651 108.049 128.651L124.556 138.766C124.556 138.766 123.331 140.425 122.388 143.123C120.787 147.708 119.61 155.719 127.503 162.794C145.338 178.786 149.613 172.993 149.613 172.993L157.868 182.913V182.916Z" fill="#F480FF"/>
<path d="M122.388 143.126L103.257 141.741C104.395 136.731 106.394 132.116 107.411 129.952L122.385 143.129L122.388 143.126Z" fill="#43305E"/>
<path d="M131.727 194.488H158.65L147.253 177.292H141.129L131.727 194.488Z" fill="#FFC600"/>
<path d="M94.1196 192.246L195.301 193.089V207.9H185.55L185.574 200.16L104.659 200.233L104.672 207.9H93.9721L94.1196 192.246Z" fill="#FFC600"/>
<path d="M103.184 103.661L103.431 103.883L94.824 112.924L94.4748 112.65L90.6545 116.97L83.8747 111.967L100.613 93.8674L106.869 99.7169L103.184 103.661Z" fill="#FFC600"/>
<path d="M144.7 187.39C145.895 187.39 146.864 186.421 146.864 185.225C146.864 184.03 145.895 183.061 144.7 183.061C143.504 183.061 142.535 184.03 142.535 185.225C142.535 186.421 143.504 187.39 144.7 187.39Z" fill="#F480FF"/>
<path d="M99.5265 132.604C99.5265 132.604 100.306 137.827 104.051 136.548C107.799 135.268 112.303 132.511 112.764 131.686C113.224 130.861 118.183 129.512 119.565 134.32C119.565 134.32 119.842 139.038 114.787 142.256C114.787 142.256 117.183 146.802 111.62 150.137C111.62 150.137 112.246 154.774 104.783 157.11C104.783 157.11 106.357 159.449 102.85 160.367C99.3429 161.285 88.1376 160.367 88.1376 160.367C88.1376 160.367 81.1412 148.599 86.7498 140.51C92.3584 132.42 99.5265 132.604 99.5265 132.604Z" fill="white"/>
<path d="M104.277 156.893C106.026 157.501 105.608 158.465 104.994 159.133C104.545 159.624 103.97 159.979 103.344 160.202C101.574 160.834 96.7056 162.083 89.4202 160.214C88.4056 159.952 87.382 160.593 87.1984 161.626C85.4191 171.56 74.9696 215.541 30.5431 205.905C4.43278 200.242 6.80509 154.891 6.80509 133.284C6.80509 111.678 18.3986 96.7697 30.1638 93.8645" stroke="#231F20" stroke-miterlimit="10"/>
<path d="M111.617 150.131C111.617 150.131 111.74 155.686 103.928 156.953C101.766 157.305 99.5535 157.137 97.4371 156.568C95.5255 156.056 93.0719 155.282 91.8556 154.427" stroke="#231F20" stroke-miterlimit="10"/>
<path d="M114.715 142.108C114.715 142.108 117.478 147.401 111.617 150.131C105.752 152.859 98.9876 154.434 90.3323 148.361" stroke="#231F20" stroke-miterlimit="10"/>
<path d="M99.6198 132.646C100.556 138.941 107.381 136.8 111.701 132.243C115.211 128.537 121.431 132.215 119.161 137.339C116.891 142.463 103.54 150.465 95.0558 142.755" stroke="#231F20" stroke-miterlimit="10"/>
<path d="M46.1436 83.5897C46.1436 83.5897 9.2044 88.9696 4.84214 111.431C0.476866 133.893 1.02175 174.113 1.02175 174.113C1.02175 174.113 12.1156 151.351 51.397 155.009L46.1436 83.5867V83.5897Z" fill="#E6E7E8"/>
<path d="M100.312 134.922C100.312 134.922 104.831 133.802 106.866 132.523" stroke="black" stroke-miterlimit="10"/>
<path d="M206.78 32.5763C177.388 32.5763 153.56 56.4046 153.56 85.7965C153.56 105.91 164.72 123.41 181.181 132.46L163.837 194.103L197.501 138.192C200.515 138.722 203.613 139.014 206.78 139.014C236.172 139.014 260 115.185 260 85.7935C260 56.4016 236.172 32.5732 206.78 32.5732V32.5763Z" fill="white" stroke="black" stroke-miterlimit="10"/>
<path d="M205.265 63.2202C205.265 63.2202 211.07 53.5233 207.147 49.6668C207.147 49.6668 204.278 44.8138 199.428 46.1836C199.428 46.1836 193.404 47.0296 193.591 52.4907C193.78 57.9488 196.312 67.8324 193.588 71.5986C193.588 71.5986 192.085 73.3326 190.58 70.8459C189.075 68.3592 188.792 63.6929 185.778 64.4455C182.765 65.1982 181.193 65.4481 182.108 67.9287C183.024 70.4094 189.126 73.2032 189.337 74.6151C189.547 76.024 190.667 78.1314 186.817 78.1916C182.963 78.2488 177.123 74.8017 174.392 78.1916C171.662 81.5815 173.64 84.5709 179.288 84.3451C184.935 84.1193 191.2 82.7375 190.845 88.5117C190.845 88.5117 191.432 92.028 184.652 92.1213C177.876 92.2147 170.909 90.2398 168.745 98.7114C168.745 98.7114 166.219 108.168 173.366 107.111C180.513 106.054 192.465 99.8012 194.443 98.5248C196.559 97.158 199.597 100.159 197.595 102.499C195.593 104.841 179.709 117.72 196.983 119.514C196.983 119.514 201.126 120.833 203.573 110.007C203.573 110.007 205.127 98.9764 214.493 106.524C214.493 106.524 221.45 113.839 224.47 112.737C227.489 111.636 228.155 110.48 227.104 108.785C226.053 107.09 216.874 101.135 216.468 99.3707C215.76 96.309 219.433 96.0682 222.961 96.0772C226.49 96.0863 240.817 99.0395 242.418 97.0646C244.02 95.0867 243.954 92.5007 240.377 90.8058C236.801 89.1109 226.917 90.9954 222.115 90.0532C222.115 90.0532 218.157 87.3888 220.55 84.8238C222.943 82.2588 239.823 78.0772 241.828 77.156C246.823 74.865 242.906 70.3943 241.828 68.3622C240.751 66.3301 234.164 60.589 226.821 69.8133C219.478 79.0375 215.008 74.865 216.278 70.4726C216.669 69.1149 222.964 55.9648 220.631 54.282C218.298 52.5991 215.056 51.8344 212.608 60.3994C210.161 68.9644 211.29 74.8951 208.186 72.9171C205.079 70.9392 203.414 67.0346 205.268 63.2232L205.265 63.2202Z" fill="#F480FF"/>
<path d="M206.006 92.4284C210.03 92.4284 213.292 89.1666 213.292 85.1429C213.292 81.1192 210.03 77.8574 206.006 77.8574C201.982 77.8574 198.721 81.1192 198.721 85.1429C198.721 89.1666 201.982 92.4284 206.006 92.4284Z" fill="#FFC600"/>
<path d="M206.205 79.9049C206.205 79.9049 205.38 80.805 207.087 81.648C208.791 82.4909 210.085 85.9772 210.48 83.9541C210.874 81.931 209.748 78.8933 206.208 79.9049H206.205Z" fill="white"/>
<path d="M194.717 78.3453C195.644 78.3453 196.396 77.5932 196.396 76.6654C196.396 75.7377 195.644 74.9856 194.717 74.9856C193.789 74.9856 193.037 75.7377 193.037 76.6654C193.037 77.5932 193.789 78.3453 194.717 78.3453Z" fill="#FFC600"/>
<path d="M194.801 91.501C195.356 91.501 195.806 91.0509 195.806 90.4955C195.806 89.9402 195.356 89.49 194.801 89.49C194.246 89.49 193.795 89.9402 193.795 90.4955C193.795 91.0509 194.246 91.501 194.801 91.501Z" fill="#FFC600"/>
<path d="M209.841 98.7266C210.879 98.7266 211.72 97.8856 211.72 96.8481C211.72 95.8105 210.879 94.9695 209.841 94.9695C208.804 94.9695 207.963 95.8105 207.963 96.8481C207.963 97.8856 208.804 98.7266 209.841 98.7266Z" fill="#FFC600"/>
<path d="M212.774 77.2253C213.434 77.2253 213.969 76.6902 213.969 76.0301C213.969 75.3701 213.434 74.835 212.774 74.835C212.114 74.835 211.579 75.3701 211.579 76.0301C211.579 76.6902 212.114 77.2253 212.774 77.2253Z" fill="#FFC600"/>
<path d="M111.596 111.244L103.922 120.035" stroke="black" stroke-miterlimit="10"/>
<path d="M90.3323 66.1316C95.5415 66.1316 99.7643 61.9088 99.7643 56.6996C99.7643 51.4905 95.5415 47.2676 90.3323 47.2676C85.1232 47.2676 80.9003 51.4905 80.9003 56.6996C80.9003 61.9088 85.1232 66.1316 90.3323 66.1316Z" stroke="black" stroke-miterlimit="10"/>
<path d="M113.354 66.785C118.563 66.785 122.786 62.5621 122.786 57.3529C122.786 52.1438 118.563 47.9209 113.354 47.9209C108.145 47.9209 103.922 52.1438 103.922 57.3529C103.922 62.5621 108.145 66.785 113.354 66.785Z" stroke="black" stroke-miterlimit="10"/>
<path d="M103.922 56.6995C103.922 56.6995 103.497 58.6413 99.7673 56.6995" stroke="black" stroke-miterlimit="10"/>
<path d="M146.864 138.345L133.425 152.835" stroke="black" stroke-miterlimit="10"/>
<path d="M153.701 145.152L140.915 159.611" stroke="black" stroke-miterlimit="10"/>
<path d="M147.126 157.73L153.367 150.658" stroke="black" stroke-miterlimit="10"/>
<path d="M103.184 103.661L94.824 112.924" stroke="black" stroke-miterlimit="10"/>
</svg>
