<svg width="49" height="49" viewBox="0 0 49 49" fill="none" xmlns="http://www.w3.org/2000/svg">
<circle cx="24.405" cy="24.405" r="23.405" stroke="white" stroke-width="2"/>
<g clip-path="url(#clip0_288_757)">
<path d="M37.6802 17.6004C39.0392 16.6354 40.1823 15.431 41.1139 14.0442V14.0428C39.8704 14.5872 38.5477 14.9492 37.1664 15.1247C38.5867 14.2767 39.6713 12.9442 40.181 11.3387C38.8568 12.1282 37.3948 12.6852 35.8367 12.9971C34.5793 11.6576 32.7873 10.8291 30.8324 10.8291C27.0395 10.8291 23.9859 13.9077 23.9859 17.6811C23.9859 18.2241 24.0319 18.7463 24.1447 19.2434C18.4497 18.9649 13.4093 16.2358 10.0229 12.0767C9.43255 13.1029 9.08445 14.2767 9.08445 15.5396C9.08445 17.9122 10.3056 20.0148 12.1282 21.2331C11.0269 21.2122 9.94774 20.892 9.03293 20.3893V20.4645C9.03293 23.7938 11.407 26.5591 14.5218 27.1968C13.9634 27.3499 13.3563 27.4224 12.7256 27.4224C12.287 27.4224 11.8442 27.3973 11.4293 27.3054C12.3162 30.0178 14.8365 32.0131 17.8301 32.0785C15.4992 33.9012 12.539 34.9998 9.33508 34.9998C8.77395 34.9998 8.23509 34.9747 7.69623 34.9065C10.7317 36.8628 14.3268 37.9809 18.2061 37.9809C30.2963 37.9809 38.1759 27.8944 37.6802 17.6004Z" fill="white"/>
</g>
<defs>
<clipPath id="clip0_288_757">
<rect width="33.4176" height="33.4176" fill="white" transform="translate(7.69617 7.69629)"/>
</clipPath>
</defs>
</svg>
