<svg width="21" height="21" viewBox="0 0 21 21" fill="none" xmlns="http://www.w3.org/2000/svg">
<path d="M19.4618 15.4518L4.20979 1.1468C3.20279 0.202796 1.62079 0.252803 0.676792 1.2598C-0.268208 2.2678 -0.217209 3.8498 0.789791 4.7938L16.0418 19.0988C17.0488 20.0428 18.6308 19.9928 19.5748 18.9858C20.5198 17.9788 20.4688 16.3958 19.4618 15.4518Z" fill="#EC7495"/>
<path d="M4.79484 19.4618L19.1018 4.20981C20.0458 3.20281 19.9958 1.62079 18.9888 0.676788C17.9818 -0.268212 16.3998 -0.217205 15.4548 0.789795L1.14784 16.0418C0.203837 17.0488 0.253836 18.6308 1.26084 19.5748C2.26784 20.5198 3.84984 20.4688 4.79484 19.4618Z" fill="#EC7495"/>
</svg>
