<svg width="285" height="183" viewBox="0 0 285 183" fill="none" xmlns="http://www.w3.org/2000/svg">
<path d="M223.135 0H51.7783C50.0574 0 48.6624 1.47221 48.6624 3.28827V130.459C48.6624 132.275 50.0574 133.747 51.7783 133.747H223.135C224.855 133.747 226.251 132.275 226.251 130.459V3.28827C226.251 1.47221 224.855 0 223.135 0Z" fill="#F480FF"/>
<path d="M203.222 18.3926H71.6938C69.973 18.3926 68.578 19.8648 68.578 21.6808V112.596C68.578 114.412 69.973 115.884 71.6938 115.884H203.222C204.943 115.884 206.338 114.412 206.338 112.596V21.6808C206.338 19.8648 204.943 18.3926 203.222 18.3926Z" fill="#FFC600" stroke="black" stroke-miterlimit="10"/>
<path d="M183.94 140.516L181.748 139.373L175.735 148.613C175.735 148.613 162.248 127.705 158.87 119.668C158.87 119.668 163.087 111.697 161.005 106.022C161.005 106.022 160.036 102.312 152.711 100.709C152.711 100.709 150.208 99.3905 148.442 102.928C148.442 102.928 143.862 99.1932 141.871 102.843C141.871 102.843 139.451 105.931 140.357 108.417C140.357 108.417 137.532 107.904 138.272 111.53C138.272 111.53 133.222 113.27 137.392 118.805C137.392 118.805 136.742 118.293 136.358 118.512C135.802 118.827 135.47 120.035 135.714 121.189C136.039 122.724 138.342 126.283 140.383 125.48C141.489 125.044 140.383 122.123 140.383 122.123C140.383 122.123 141.208 122.307 141.793 123.017C142.574 123.965 143.255 125.488 143.465 125.806C145.384 128.697 147.684 126.708 147.684 126.708C147.684 126.708 148.663 162.128 161.101 173.93C161.101 173.93 171.695 187.105 184.976 179.125C184.976 179.125 191.784 175.196 194.139 169.702L183.937 140.508L183.94 140.516Z" fill="white"/>
<path d="M148.24 102.306C148.24 102.306 144.864 99.8315 142.395 102.3C139.926 104.767 138.552 107.408 141.686 109.833C144.823 112.258 146.949 113.875 148.5 113.056C150.05 112.237 150.927 109.537 148.24 107.636C145.55 105.734 144.919 104.843 144.919 104.843" stroke="black" stroke-miterlimit="10"/>
<path d="M140.152 108.028C140.152 108.028 137.555 107.893 138.272 111.53C138.991 115.163 142.995 118.884 146.093 118.852C148.378 118.827 149.424 114.706 147.684 114.152C145.942 113.599 145.638 112.631 145.638 112.631" stroke="black" stroke-miterlimit="10"/>
<path d="M138.272 111.53C138.272 111.53 134.694 112.508 136.003 116.298C137.311 120.087 141.141 122.189 143.034 121.882C144.309 121.674 143.779 118.284 143.779 118.284" stroke="black" stroke-miterlimit="10"/>
<path d="M140.385 121.913L141.172 122.428C141.759 122.812 142.229 123.365 142.504 124.034C143.177 125.667 144.857 128.634 147.687 126.716C147.687 126.716 147.251 163.709 165.024 177.706C182.797 191.703 197.346 166.055 197.346 166.055L183.641 136.466L175.735 148.616C175.735 148.616 161.464 127.259 158.87 119.671C158.87 119.671 162.046 113.947 161.581 109.39" stroke="black" stroke-miterlimit="10"/>
<path d="M136.974 118.21C136.974 118.21 135.26 118.852 135.714 121.192C135.714 121.192 137.244 125.971 139.801 125.601C140.622 125.48 141.157 124.708 140.567 123.154C140.567 123.154 139.991 121.934 140.175 121.781C140.359 121.625 140.998 121.556 140.998 121.556" stroke="black" stroke-miterlimit="10"/>
<path d="M148.092 105.076L134.831 52.0751L136.989 51.042L155.007 118.221L152.265 119.794L148.092 105.076Z" fill="#43305E"/>
<path d="M159.312 103.696C159.312 103.696 153.597 97.1739 149.541 99.1743C146.942 100.457 149.673 104.575 151.436 105.386C153.199 106.195 152.664 107.343 153.049 108.776C153.433 110.209 154.724 115.024 154.724 115.024C154.724 115.024 159.335 110.119 159.309 107.546C159.283 104.973 159.662 104.422 159.309 103.696H159.312Z" fill="white"/>
<path d="M152.55 106.91C152.55 106.91 152.789 107.71 152.314 108.655C151.839 109.601 149.785 115.906 155.043 116.205C160.303 116.503 160.394 111.067 159.465 108.738C158.535 106.408 153.729 105.915 152.55 106.913V106.91Z" fill="white"/>
<path d="M153.965 116.032C150.33 115.462 151.125 110.598 151.958 109.39C152.114 109.162 152.228 108.913 152.311 108.655C152.714 107.384 152.236 105.986 151.236 105.159C149.588 103.791 148.624 103.756 148.468 101.665C148.271 98.9795 150.977 98.7931 150.977 98.7931C154.62 98.4725 159.46 103.832 159.46 103.832C159.46 103.832 161.542 105.989 161.62 110.044" stroke="black" stroke-miterlimit="10"/>
<path d="M212.637 48.2113C212.637 48.2113 199.888 34.5074 204.98 30.3669C210.072 26.2265 223.916 14.8381 232.755 23.1191C241.594 31.4 237.325 29.723 244.367 29.1229C251.409 28.5228 261.457 38.922 265.305 46.6521C269.153 54.3823 263.049 56.9197 261.48 60.8958C259.912 64.8718 247.236 85.6591 243.647 87.7938C240.059 89.9284 218.905 54.5083 216.301 52.5134C213.696 50.5185 212.64 48.2085 212.64 48.2085L212.637 48.2113Z" fill="black"/>
<path d="M221.374 113.837C217.622 104.079 205.548 101.736 198.74 109.436C197.359 110.998 195.868 112.873 194.194 115.122C185.347 127.02 180.289 135.531 180.289 135.531L194.137 171.998L219.061 144.865C225.165 138.22 226.975 128.399 223.677 119.822L221.374 113.834V113.837Z" fill="black"/>
<path d="M264.666 104.342C264.666 104.342 210.066 97.8481 204.105 105.09C198.146 112.333 198.166 181.882 198.166 181.882C198.166 181.882 231.503 181.995 258.006 182C276.826 182 275.523 127.273 274.479 117.276C273.432 107.28 264.666 104.342 264.666 104.342Z" fill="#E5E6E8"/>
<path d="M225.176 91.9673L223.916 107.17C223.916 107.17 226.469 123.077 245.369 109.368L243.645 87.7967C243.645 87.7967 231.823 80.283 225.176 91.9673Z" fill="white" stroke="black" stroke-miterlimit="10"/>
<path d="M213.727 44.9616C213.727 44.9616 196.476 91.2851 223.729 94.6775C235.216 96.1078 243.583 88.4653 247.89 83.1931C248.96 81.8861 249.791 80.4146 250.5 78.88C251.081 77.6223 252.868 75.8384 258.341 76.0905C266.679 76.4741 263.854 67.0834 259.009 65.1379C254.161 63.1923 251.64 67.8151 251.64 67.8151C251.64 67.8151 246.901 67.815 248.165 63.132C249.43 58.4517 250.214 55.0429 241.108 57.6378C232.005 60.2328 230.719 49.8392 227.209 41.4925C225.435 37.2808 222.249 36.9547 219.526 37.6617C216.971 38.3275 215.106 40.5581 214.514 43.2627C214.371 43.9121 214.13 44.5259 213.725 44.9616H213.727Z" fill="white" stroke="black" stroke-miterlimit="10"/>
<path d="M217.447 60.9539C217.479 60.1964 216.894 59.5543 216.142 59.5196C215.39 59.485 214.755 60.0709 214.724 60.8284C214.692 61.5859 215.277 62.228 216.029 62.2627C216.781 62.2974 217.416 61.7114 217.447 60.9539Z" fill="black"/>
<path d="M236.543 65.3895C236.574 64.632 235.99 63.9898 235.238 63.9552C234.486 63.9205 233.851 64.5065 233.819 65.264C233.788 66.0214 234.372 66.6636 235.124 66.6982C235.877 66.7329 236.512 66.1469 236.543 65.3895Z" fill="black"/>
<path d="M224.077 62.7129L220.084 73.8355L226.251 76.2195" stroke="black" stroke-miterlimit="10"/>
<path d="M232.755 60.6631C232.755 60.6631 234.469 58.7231 237.901 60.8988" stroke="black" stroke-miterlimit="10"/>
<path d="M213.727 54.662C213.727 54.662 215.441 52.7218 218.874 54.8976" stroke="black" stroke-miterlimit="10"/>
<path d="M224.768 83.8892C224.768 83.8892 227.912 85.6841 232.906 82.9685" stroke="black" stroke-miterlimit="10"/>
<path d="M260.419 71.824C260.419 71.824 258.331 67.9329 255.667 70.1525C253.005 72.372 253.122 73.427 253.122 73.427" stroke="black" stroke-miterlimit="10"/>
<path d="M271.815 109.05C271.815 109.05 281.827 109.842 280.926 136.855C280.025 163.866 280.679 181.699 280.679 181.699H255.547V117.224C255.547 117.224 257.947 105.729 271.817 109.05H271.815Z" fill="white" stroke="black" stroke-miterlimit="10"/>
<path d="M250.954 111.999C255.098 103.151 268.899 101.641 275.738 108.373C281.121 113.67 285.135 123.68 284.995 137.908C284.733 164.718 284.457 159.306 284.457 159.306L246.802 159.314C246.802 159.314 242.245 130.597 250.954 112.001V111.999Z" fill="#E5E6E8"/>
<path d="M285 159.303H253.527C253.527 159.303 249.43 126.703 257.204 113.054" stroke="black" stroke-miterlimit="10"/>
<path d="M211.879 71.446C217.589 71.446 222.218 66.5607 222.218 60.5344C222.218 54.5081 217.589 49.6228 211.879 49.6228C206.168 49.6228 201.539 54.5081 201.539 60.5344C201.539 66.5607 206.168 71.446 211.879 71.446Z" stroke="black" stroke-miterlimit="10"/>
<path d="M235.393 77.3703C241.037 77.3703 245.613 72.5415 245.613 66.5849C245.613 60.6282 241.037 55.7993 235.393 55.7993C229.749 55.7993 225.173 60.6282 225.173 66.5849C225.173 72.5415 229.749 77.3703 235.393 77.3703Z" stroke="black" stroke-miterlimit="10"/>
<path d="M222.047 62.5154C222.047 62.5154 223.581 60.759 225.635 63.3677" stroke="black" stroke-miterlimit="10"/>
<path d="M142.149 70.9389C142.107 70.8128 141.91 70.7471 141.847 70.8978C141.671 71.328 141.458 71.6842 141.172 72.0459C140.957 72.3172 140.702 72.5912 140.668 72.9584C140.663 73.005 140.72 73.0351 140.757 73.0105C141.087 72.794 141.336 72.4241 141.582 72.1144C141.621 72.0651 141.658 72.013 141.697 71.9637C141.442 73.3393 141.12 74.6875 140.546 75.9644C140.17 76.8002 139.669 77.5592 139.046 78.2087C138.602 78.6718 138.095 78.9019 137.581 79.165C135.805 77.614 133.463 76.8331 131.544 77.7675C129.262 77.7757 127.491 80.0035 126.79 82.3464C126.432 82.1793 126.016 82.0998 125.663 81.9189C124.905 81.5271 124.227 80.9598 123.594 80.3789C122.358 79.2499 121.412 77.8415 120.465 76.4467C120.439 76.3508 120.41 76.2549 120.376 76.1645C121.275 76.7125 122.194 77.14 123.176 77.5593C123.253 77.5922 123.285 77.4715 123.227 77.4277C122.277 76.6906 121.174 76.3042 120.164 75.7014C120.143 75.6658 120.125 75.6246 120.101 75.589C120.062 75.5287 119.987 75.4794 119.917 75.5095C119.896 75.5177 119.805 75.5452 119.86 75.5369C119.733 75.5507 119.678 75.715 119.795 75.7945C119.816 75.8082 119.836 75.8192 119.857 75.8357C119.857 75.8466 119.852 75.8548 119.857 75.863C119.964 76.1507 120.052 76.4248 120.122 76.7235C120.244 77.2469 120.257 77.8059 120.441 78.3101C120.467 78.3813 120.576 78.3978 120.595 78.3101C120.667 77.9402 120.66 77.477 120.589 77.0194C121.433 78.447 122.363 79.8035 123.539 80.9653C124.141 81.5627 125.603 82.8698 126.652 82.8725C126.59 83.1465 126.538 83.4178 126.507 83.6864C126.247 85.9005 126.743 88.0105 127.86 89.608C127.192 91.0028 126.024 91.9618 124.876 92.9867C123.427 94.2828 121.851 95.4255 120.135 96.2832C120.48 95.7954 120.88 95.2885 121.013 94.7185C121.023 94.6774 120.976 94.6528 120.95 94.6802C120.431 95.1707 120.039 95.8968 119.639 96.4969C119.572 96.5983 119.662 96.7216 119.764 96.7271C120.493 96.7627 121.205 97.0312 121.937 97.097C121.984 97.1025 121.986 97.0313 121.947 97.0148C121.314 96.76 120.756 96.5161 120.104 96.4449C122.082 95.705 123.791 94.4417 125.39 93.0196C126.133 92.3564 127.649 91.2521 128.197 90.0574C129.236 91.3151 130.708 92.1811 132.541 92.403C137.199 92.9675 141.453 87.5282 140.058 82.8643C139.69 81.6312 138.929 80.4556 137.963 79.5075C139.069 79.091 140.019 77.7922 140.557 76.877C141.44 75.3644 142.021 73.4434 141.975 71.6458C142.123 72.2597 142.328 72.8406 142.818 73.2653C142.857 73.2982 142.933 73.268 142.912 73.2078C142.65 72.4569 142.406 71.6951 142.159 70.9361L142.149 70.9389ZM138.607 81.9326C138.189 82.826 137.766 83.7055 137.283 84.5687C136.807 85.4209 136.184 86.2951 136.018 87.2843C136.008 87.3391 136.075 87.3994 136.119 87.3473C136.719 86.5828 137.106 85.61 137.571 84.7496C138.015 83.9303 138.467 83.0835 138.731 82.1792C138.952 82.6067 139.139 83.0479 139.277 83.5055C139.298 83.574 139.308 83.6398 139.326 83.7056C139.165 83.9275 139.038 84.1823 138.916 84.429C138.752 84.7468 138.565 85.1387 138.651 85.5087C138.661 85.5525 138.718 85.5689 138.75 85.536C138.999 85.2538 139.152 84.8619 139.334 84.5304C139.373 84.4591 139.412 84.3879 139.451 84.3166C139.814 86.9007 138.225 89.1915 136.083 90.3999C136.286 90.0738 136.459 89.7258 136.615 89.4436C137.129 88.5092 137.586 87.5254 137.989 86.5307C138.012 86.4732 137.945 86.4321 137.911 86.4814C137.368 87.276 136.929 88.1502 136.449 88.9887C136.099 89.5998 135.548 90.1752 135.226 90.8137C134.886 90.9507 134.538 91.0603 134.185 91.1425C134.434 90.6301 134.647 90.0903 134.857 89.5696C134.878 89.5148 134.813 89.471 134.782 89.5231C134.455 90.0547 134.104 90.6109 133.863 91.2055C133.606 91.2521 133.346 91.2877 133.089 91.2987C133.175 91.063 133.245 90.8164 133.333 90.5972C133.523 90.1286 133.725 89.6792 133.85 89.186C133.863 89.1367 133.798 89.1092 133.775 89.1531C133.499 89.6272 133.229 90.1067 132.975 90.5945C132.861 90.8137 132.733 91.0576 132.663 91.3069C132.248 91.296 131.835 91.2411 131.438 91.1315C131.438 91.1315 131.433 91.1315 131.43 91.1315C131.534 90.8849 131.612 90.6192 131.705 90.3725C131.929 89.7807 132.173 89.1997 132.393 88.6105C132.417 88.5502 132.323 88.5092 132.295 88.5667C132.051 89.0709 131.786 89.5641 131.542 90.0684C131.396 90.367 131.214 90.6959 131.121 91.0329C130.732 90.8959 130.376 90.7123 130.051 90.4958C130.155 90.2657 130.238 90.019 130.337 89.7998C130.493 89.4545 130.674 89.0901 130.674 88.701C130.674 88.6489 130.602 88.6242 130.578 88.6736C130.376 89.0846 130.189 89.5038 129.984 89.9121C129.919 90.0382 129.849 90.1725 129.794 90.3122C129.353 89.9697 128.976 89.5587 128.659 89.0956C128.891 88.6845 129.111 88.268 129.332 87.846C129.558 87.4185 129.825 86.9582 129.856 86.4595C129.856 86.4239 129.81 86.3992 129.786 86.4293C129.462 86.8513 129.213 87.3583 128.935 87.8186C128.732 88.1502 128.574 88.4653 128.467 88.8078C128.221 88.3995 128.013 87.9584 127.855 87.4953C128.013 87.161 128.158 86.8184 128.322 86.4978C128.636 85.8785 128.971 85.2702 129.197 84.6071C129.213 84.5633 129.15 84.5386 129.127 84.5769C128.774 85.1661 128.462 85.7799 128.14 86.3883C128.01 86.6321 127.87 86.8815 127.738 87.1336C127.398 85.9717 127.312 84.7085 127.468 83.522C127.72 81.5956 128.537 80.1981 129.779 79.3678C129.727 79.4637 129.843 79.5678 129.932 79.5158C129.971 79.4911 130.01 79.4747 130.049 79.45C129.901 79.7131 129.755 79.9734 129.61 80.2228C129.226 80.8831 128.831 81.571 128.761 82.3547C128.756 82.4095 128.823 82.4149 128.849 82.3793C129.322 81.6942 129.633 80.8859 130.038 80.1542C130.23 79.809 130.456 79.4692 130.656 79.1184C131.176 78.8609 131.7 78.6663 132.227 78.543C132.102 78.7074 131.993 78.8855 131.89 79.0527C131.594 79.5267 131.365 80.0281 131.24 80.5817C131.23 80.6255 131.287 80.6694 131.316 80.6283C131.586 80.283 131.801 79.9076 132.009 79.5158C132.196 79.165 132.45 78.8389 132.653 78.4909C132.791 78.4827 132.928 78.4745 133.071 78.4745C133.139 78.4745 133.177 78.4443 133.206 78.4032C133.507 78.3922 133.814 78.4169 134.12 78.4635C133.902 78.817 133.767 79.2692 133.619 79.6089C133.598 79.6555 133.653 79.7103 133.692 79.6665C133.956 79.3568 134.341 78.9677 134.512 78.5402C134.837 78.6197 135.166 78.7266 135.499 78.8855C135.748 79.0033 135.99 79.1458 136.223 79.2993C136.145 79.4116 136.078 79.5349 136.026 79.6391C135.751 80.1953 135.33 80.8667 135.418 81.5161C135.426 81.5682 135.494 81.5764 135.525 81.5462C135.984 81.0831 136.083 80.357 136.379 79.7843C136.415 79.713 136.467 79.6144 136.509 79.5075C136.854 79.7624 137.179 80.0556 137.477 80.3762C137.163 80.9434 136.836 81.4997 136.652 82.1272C136.639 82.1683 136.693 82.2012 136.719 82.171C137.054 81.7737 137.602 81.2393 137.719 80.6529C138.056 81.0503 138.358 81.486 138.612 81.9436L138.607 81.9326Z" fill="black"/>
<path d="M187.461 86.8428C187.461 86.8428 187.45 86.8401 187.445 86.8373C187.469 86.5715 187.357 86.2701 187.284 86.029C187.178 85.6837 187.006 85.3494 186.729 85.1274C186.697 85.1028 186.648 85.1438 186.661 85.1822C186.77 85.4946 186.9 85.7961 186.996 86.1139C187.048 86.2866 187.064 86.492 187.1 86.6838C185.77 85.111 183.392 84.4397 181.502 84.204C180.71 84.1054 178.978 83.5929 178.069 84.0806C178.028 83.686 177.957 83.2915 177.841 82.9024C176.784 79.362 172.489 76.2628 169.334 77.8028C167.865 77.8083 166.608 78.7373 165.71 80.0224C165.24 79.795 164.725 79.6525 164.263 79.3922C163.5 78.9647 162.833 78.381 162.204 77.7617C161.142 76.715 160.257 75.4599 159.416 74.2076C160.067 74.5885 160.727 74.8352 161.498 74.9886C161.55 74.9996 161.591 74.9174 161.537 74.89C160.716 74.4872 159.898 74.035 159.112 73.5582C158.992 73.487 158.826 73.5774 158.831 73.7281C158.868 74.9201 159.213 76.2683 159.621 77.3753C159.652 77.4575 159.756 77.4439 159.763 77.3562C159.862 76.2902 159.387 75.2462 159.242 74.1857C159.992 75.5887 160.872 76.8793 161.937 78.0439C162.747 78.9318 164.118 80.2526 165.414 80.48C164.816 81.4802 164.419 82.6339 164.292 83.7272C164.014 86.0975 164.598 88.3499 165.886 89.9803C165.011 90.8408 164.242 91.8602 163.406 92.7535C162.381 93.8496 161.181 94.7922 160.171 95.891C160.176 95.743 160.171 95.595 160.182 95.4471C160.205 95.047 160.288 94.6387 160.265 94.2414C160.265 94.2085 160.215 94.1893 160.2 94.2222C159.891 94.8744 159.911 95.7677 159.898 96.4801C159.898 96.576 159.982 96.6226 160.062 96.6117C160.766 96.4993 161.407 96.5158 162.074 96.2061C162.121 96.1842 162.095 96.1075 162.048 96.1075C161.42 96.1102 160.851 96.1267 160.257 96.2801C161.454 95.5594 162.485 94.351 163.445 93.3289C164.344 92.3725 165.32 91.323 166.052 90.1776C167.086 91.3888 168.529 92.2246 170.324 92.4411C171.425 92.5753 172.5 92.3698 173.486 91.9232C174.429 94.1647 176.231 95.6663 178.557 96.2363C178.108 96.5103 177.732 96.8473 177.42 97.3077C177.391 97.3488 177.446 97.4036 177.485 97.3762C177.981 97.0254 178.485 96.661 179.006 96.3596C179.09 96.313 179.1 96.2116 179.064 96.1294C178.895 95.7321 178.656 95.3512 178.399 95.0114C178.375 94.9813 178.334 95.0114 178.331 95.0415C178.308 95.3758 178.474 95.6553 178.625 95.9431C177.804 95.3594 176.696 95.1758 175.841 94.6607C174.756 94.0057 174.263 92.9042 173.686 91.8382C176.303 90.5503 178.217 87.5306 178.1 84.5136C179.292 84.1766 180.603 84.4972 181.798 84.7082C182.74 84.8753 183.665 85.1219 184.56 85.4727C185.397 85.8015 186.033 86.5661 186.822 86.9305C186.622 87.0264 186.487 87.1662 186.324 87.3306C186.295 87.3607 186.316 87.4183 186.357 87.4155C186.594 87.4046 186.796 87.41 187.019 87.3141C187.188 87.2401 187.422 87.1826 187.5 86.9908C187.521 86.9387 187.513 86.8867 187.466 86.8538L187.461 86.8428ZM169.223 91.1532C166.07 90.2873 164.847 86.6345 165.253 83.5381C165.504 81.6117 166.322 80.2142 167.563 79.3839C167.512 79.4798 167.628 79.584 167.717 79.5319C168.535 79.0414 169.352 78.6879 170.186 78.5208C170.404 78.5016 170.627 78.4934 170.856 78.4961C170.923 78.4961 170.962 78.466 170.991 78.4249C171.739 78.3974 172.5 78.5372 173.284 78.9099C175.08 79.7676 176.485 81.5733 177.069 83.5353C178.464 88.2266 173.195 92.2465 169.225 91.1559L169.223 91.1532Z" fill="black"/>
<path d="M182.831 35.6913C182.831 35.6913 182.831 35.6886 182.831 35.6858C182.831 35.5653 182.725 35.4885 182.618 35.5132C182.143 35.6282 181.632 35.7461 181.182 35.9434C181.133 35.9653 181.115 36.0557 181.182 36.0694C181.468 36.1187 181.767 36.0749 182.063 36.0091C180.905 36.7874 179.806 37.7492 178.921 38.8343C178.033 39.9277 177.095 41.18 176.714 42.5912C174.943 40.1469 171.793 38.5302 169.334 39.7276C167.27 39.7359 165.621 41.5581 164.806 43.6407C164.206 43.3393 163.487 43.2159 162.877 42.9803C161.952 42.624 161.077 42.1555 160.236 41.6184C158.642 40.6045 157.416 39.2454 156.175 37.8259C157.027 38.015 157.806 38.4945 158.717 38.4616C158.782 38.4616 158.795 38.363 158.733 38.3438C157.694 38.015 156.801 37.382 155.687 37.3464C155.503 37.3409 155.456 37.5629 155.552 37.6917C156.136 38.4672 156.162 39.492 156.661 40.2894C156.679 40.3195 156.731 40.3195 156.739 40.2784C156.832 39.7057 156.648 38.9933 156.372 38.3713C157.333 39.8181 158.652 41.0238 160.039 41.9746C160.807 42.5035 161.636 42.9255 162.482 43.2982C163.134 43.5859 163.921 43.9667 164.666 44.0243C164.484 44.5614 164.357 45.1094 164.294 45.641C164.256 45.9643 164.24 46.2822 164.235 46.6001C163.679 46.5645 163.103 46.5645 162.573 46.6988C162.513 46.7125 162.508 46.7974 162.557 46.8303C163.066 47.1591 163.671 47.0714 164.235 46.9152C164.281 50.6776 166.525 53.8973 170.326 54.3577C174.984 54.9221 179.238 49.4828 177.843 44.8189C177.646 44.1558 177.334 43.5091 176.937 42.9035C177.604 41.306 178.492 39.8838 179.658 38.6178C180.261 37.9629 180.943 37.3957 181.645 36.8669C181.891 36.6833 182.146 36.5408 182.366 36.3654C182.377 36.6038 182.413 36.8422 182.462 37.0751C182.473 37.1299 182.553 37.1272 182.566 37.0751C182.673 36.6477 182.865 36.2421 182.818 35.7954C182.823 35.7844 182.831 35.7735 182.834 35.7626C182.847 35.7324 182.842 35.705 182.834 35.6803L182.831 35.6913ZM177.064 45.4602C178.459 50.1514 173.19 54.1713 169.22 53.0807C166.068 52.2148 164.845 48.5621 165.25 45.4657C165.502 43.5393 166.32 42.1418 167.561 41.3115C167.509 41.4074 167.626 41.5115 167.714 41.4595C168.532 40.969 169.35 40.6154 170.183 40.4483C170.402 40.4291 170.625 40.4209 170.853 40.4237C170.921 40.4237 170.96 40.3935 170.988 40.3524C171.736 40.325 172.497 40.4648 173.281 40.8374C175.078 41.6951 176.483 43.5009 177.067 45.4629L177.064 45.4602Z" fill="black"/>
<path d="M134.808 86.1388C134.097 84.8344 133.686 83.3931 133.172 81.9956C133.092 81.7791 132.762 81.6585 132.648 81.9243C132.043 83.3136 131.627 84.7742 130.893 86.1004C130.822 86.2265 130.942 86.432 131.087 86.369C131.594 86.1443 131.874 85.4647 132.095 84.9276C132.36 85.0454 132.684 85.0098 132.965 85.0235C133.222 85.0345 133.437 85.0482 133.658 85.029C133.853 85.514 134.063 85.9881 134.317 86.443C134.504 86.7745 134.992 86.4758 134.808 86.1415V86.1388ZM133.128 84.4891C132.863 84.4809 132.544 84.4398 132.266 84.5029C132.484 83.9685 132.676 83.426 132.881 82.8862C133.071 83.4287 133.255 83.974 133.455 84.5138C133.354 84.5001 133.248 84.4946 133.128 84.4891Z" fill="black"/>
<path d="M130.867 81.6915C130.856 81.6614 130.815 81.6423 130.794 81.6724C130.69 81.7957 130.584 81.8806 130.521 82.0423C130.456 82.204 130.42 82.3766 130.376 82.5465C130.363 82.5958 130.42 82.6287 130.454 82.5958C130.591 82.4616 130.737 82.352 130.846 82.1875C130.95 82.0313 130.918 81.8587 130.867 81.6943V81.6915Z" fill="black"/>
<path d="M171.627 85.388C171.98 85.1058 172.175 84.6756 172.061 84.0755C171.863 83.0369 170.749 82.6698 169.913 83.0397C169.773 83.1027 169.711 83.2096 169.734 83.3713C169.906 84.5989 169.651 85.8347 169.755 87.0486C169.747 87.0486 169.737 87.0486 169.729 87.0486C169.643 87.0486 169.61 87.1747 169.685 87.2186C169.713 87.235 169.745 87.2487 169.776 87.2651C169.778 87.2898 169.778 87.3172 169.784 87.3419C169.784 87.3419 169.789 87.3419 169.789 87.3391C169.825 87.4624 169.983 87.5035 170.056 87.3884C171.017 87.7282 172.479 87.6131 172.751 86.4458C172.905 85.7909 172.276 85.5086 171.627 85.388ZM170.537 85.2922C170.456 85.3004 170.396 85.3442 170.36 85.4018C170.376 84.7523 170.331 84.1002 170.259 83.4946C171.534 83.1685 172.172 85.1168 170.537 85.2949V85.2922ZM172.235 86.5006C171.98 87.098 170.887 87.098 170.15 87.0678C170.259 86.6294 170.324 86.1635 170.347 85.6867C170.383 85.747 170.443 85.7908 170.537 85.7908C170.89 85.7908 172.528 85.8128 172.235 86.5033V86.5006Z" fill="black"/>
<path d="M161.797 85.1305C158.53 84.8675 155.188 85.0182 151.914 85.0812C148.596 85.1443 145.257 85.2128 141.943 85.4375C141.988 85.3772 142.024 85.3251 142.045 85.3005C142.278 85.021 142.6 84.7551 142.709 84.3879C142.728 84.3222 142.66 84.2865 142.611 84.3085C142.341 84.4345 141.092 85.3662 141.351 85.7745C141.242 86.0759 141.515 86.5006 141.705 86.7664C141.873 87.0021 142.302 87.6707 142.657 87.4515C143.037 87.2158 142.447 86.7829 142.297 86.6185C142.141 86.4486 142.001 86.2294 141.845 86.0376C145.07 85.7608 148.279 85.5361 151.514 85.4429C154.929 85.3442 158.387 85.4813 161.791 85.2045C161.838 85.2018 161.838 85.1305 161.791 85.1278L161.797 85.1305Z" fill="black"/>
<path d="M143.117 67.2313C142.951 66.4558 142.156 65.9517 141.479 66.3874C141.074 66.6477 140.7 67.7821 141.18 68.0973C141.315 68.3959 141.601 68.6426 141.912 68.7138C142.73 68.8974 143.281 67.9958 143.117 67.2313ZM142.024 68.3219C141.616 68.3219 141.435 67.9849 141.383 67.626C141.364 67.3519 141.398 67.0806 141.577 66.8477C141.941 66.3736 142.509 66.7765 142.681 67.2094C142.883 67.7219 142.577 68.3247 142.024 68.3219Z" fill="black"/>
<path d="M118.175 71.739C117.567 71.8459 117.167 72.6048 117.092 73.194C117.048 73.5365 117.094 73.8626 117.3 74.1394C117.458 74.3504 117.65 74.4079 117.858 74.386C118.003 74.5121 118.188 74.5779 118.411 74.5477C118.871 74.4847 119.195 74.038 119.327 73.5995C119.546 72.8761 119.034 71.591 118.175 71.7417V71.739ZM118.497 74.0243C118.343 74.1366 118.19 74.1558 118.047 74.1175C117.762 73.9558 117.551 73.7092 117.57 73.3447C117.588 72.9611 117.806 72.5117 118.12 72.3089C118.53 72.0458 118.855 72.7692 118.896 73.1145C118.938 73.4707 118.774 73.8215 118.497 74.0215V74.0243Z" fill="black"/>
<path d="M117.557 96.1296C117.165 95.683 116.404 95.8172 115.983 96.1296C115.451 96.5269 115.316 97.4916 115.981 97.8286C115.999 97.8368 116.022 97.8368 116.043 97.8341C116.323 98.067 116.708 98.1245 117.043 98.0012C117.697 97.7655 118.053 96.6914 117.559 96.1296H117.557ZM117.081 97.4422C116.897 97.6504 116.578 97.6697 116.341 97.5573C116.144 97.4614 116.069 97.3052 115.991 97.1381C115.968 96.9408 115.991 96.7517 116.152 96.5818C116.375 96.3434 116.806 96.2338 117.102 96.3708C117.513 96.5599 117.313 97.1846 117.084 97.4422H117.081Z" fill="black"/>
<path d="M173.98 66.3135C174.803 62.7594 175.95 58.4298 174.868 54.8209C174.855 54.7716 174.79 54.7936 174.798 54.8401C175.397 58.6079 174.47 62.162 173.681 65.812C172.998 68.966 171.819 72.0213 170.469 74.9123C170.474 74.3341 170.474 73.7532 170.331 73.2133C170.318 73.1667 170.256 73.1667 170.243 73.2133C170.012 74.0546 170.059 75.0274 170.093 75.8933C170.098 76.0166 170.215 76.1371 170.337 76.0906C171.155 75.7809 171.915 75.463 172.684 75.0301C172.733 75.0027 172.7 74.9232 172.648 74.9397C172.024 75.1151 171.417 75.2767 170.812 75.4822C171.438 74.778 171.671 73.3997 171.978 72.5995C172.767 70.5444 173.481 68.47 173.98 66.3135Z" fill="black"/>
<path d="M157.917 96.8257C157.873 96.3325 157.686 95.6365 157.125 95.5735C156.72 95.5269 156.469 95.8557 156.318 96.3024C156.23 96.1051 156.11 95.9407 155.939 95.8393C155.586 95.6365 155.227 96.0201 155.035 96.2832C154.656 96.8011 154.532 97.6451 154.757 98.2507C154.781 98.311 154.869 98.3247 154.887 98.2507C154.991 97.8177 155.03 97.3738 155.165 96.9491C155.269 96.6203 155.69 95.9242 155.895 96.5134C156.066 96.9984 156.074 97.5519 156.102 98.0698C156.102 98.1301 156.108 98.1849 156.11 98.2315C156.136 98.5357 156.585 98.5411 156.565 98.2315C156.536 97.8917 156.635 95.8228 157.164 96.0749C157.554 96.2612 157.497 97.1217 157.492 97.4779C157.486 97.7848 157.39 98.237 157.606 98.4918C157.632 98.5219 157.671 98.5137 157.697 98.4918C158.076 98.1794 157.954 97.2505 157.915 96.823L157.917 96.8257Z" fill="black"/>
<path d="M158.499 93.3321C158.2 93.5458 157.956 93.8308 157.902 94.2172C157.897 94.2638 157.938 94.3186 157.985 94.2857C158.109 94.1953 158.224 94.0884 158.343 93.9898C158.317 94.3104 158.304 94.6337 158.354 94.9434C158.361 94.9954 158.442 95.0064 158.463 94.9598C158.665 94.5187 158.87 94.0446 158.842 93.5404C158.831 93.3705 158.65 93.2225 158.496 93.3321H158.499Z" fill="black"/>
<path d="M182.917 95.3761C182.335 95.3104 181.935 95.6475 181.691 96.1243C181.593 95.8091 181.424 95.5652 181.138 95.4995C180.102 95.2666 179.889 97.4149 180.079 98.0369C180.097 98.0945 180.185 98.1027 180.198 98.0369C180.271 97.656 180.323 97.2724 180.406 96.8915C180.455 96.6695 180.912 95.483 181.229 96.0776C181.369 96.338 181.413 96.6832 181.421 97.0257C181.388 97.2778 181.38 97.5272 181.401 97.7519C181.426 98.026 181.795 98.0314 181.808 97.7519C181.816 97.5957 181.826 97.3848 181.824 97.1491C181.899 96.5326 182.164 95.8667 182.764 95.842C183.73 95.8009 183.288 97.3409 183.615 97.8423C183.641 97.8834 183.688 97.8889 183.724 97.856C184.41 97.2285 183.797 95.4748 182.917 95.3734V95.3761Z" fill="black"/>
<path d="M184.75 94.6093C184.563 94.5326 184.363 94.4777 184.163 94.4421C184.213 94.2229 184.259 94.0009 184.22 93.7763C184.171 93.4967 183.8 93.4474 183.73 93.7406C183.724 93.768 183.737 93.8009 183.766 93.8064C183.8 93.8146 183.898 93.8283 183.891 93.8118C183.911 93.8447 183.891 93.9599 183.888 93.9982C183.875 94.1626 183.831 94.3544 183.763 94.5051C183.709 94.6284 183.753 94.7627 183.88 94.8066C184.174 94.9107 184.511 94.9134 184.766 94.7079C184.802 94.6805 184.797 94.6285 184.753 94.612L184.75 94.6093Z" fill="black"/>
<path d="M172.048 48.2088C171.806 48.1704 171.671 48.2417 171.451 48.3595C171.165 48.5129 170.856 48.4663 170.581 48.3238C169.968 48.0087 169.773 47.1921 169.939 46.5454C170.056 46.0933 170.516 45.7371 170.866 45.496C171.284 45.2082 171.63 45.1041 171.858 45.6302C171.879 45.6768 171.936 45.6549 171.952 45.6165C172.159 45.0082 171.653 44.7095 171.142 44.8657C170.55 45.0493 169.851 45.633 169.599 46.2358C169.249 47.0688 169.477 48.1457 170.126 48.7431C170.648 49.2226 172.058 49.3131 172.17 48.3732C172.178 48.3047 172.113 48.2142 172.048 48.2033V48.2088Z" fill="black"/>
<path d="M185.874 32.0059C185.173 31.8853 184.363 32.6279 184.745 33.2965C184.451 33.8829 184.688 34.6858 185.184 35.0722C185.934 35.6558 186.713 34.757 186.858 34.0309C187.017 33.2417 186.734 32.1539 185.874 32.0059ZM186.324 33.9816C186.228 34.4584 185.812 34.8886 185.34 34.6064C185.01 34.4091 184.875 33.9076 184.88 33.4801C184.885 33.4856 184.888 33.4911 184.893 33.4938C184.932 33.5349 184.999 33.5047 185.002 33.4472C185.002 32.9375 185.417 32.3539 185.95 32.6032C186.396 32.8142 186.412 33.5623 186.326 33.9788L186.324 33.9816Z" fill="black"/>
<path d="M151.026 33.5951C149.912 34.0171 149.749 35.7544 150.512 36.5765C150.522 36.5874 150.538 36.5902 150.554 36.5902C150.735 36.9546 151.008 37.2615 151.387 37.4204C152.457 37.8671 153.018 36.549 153.103 35.642C153.21 34.4884 152.169 33.1649 151.026 33.5951ZM152.587 35.8284C152.472 36.4943 152.075 37.3053 151.348 36.8751C150.948 36.6367 150.676 36.1709 150.517 35.6886C150.481 35.1187 150.533 34.5378 150.974 34.1952C151.925 33.4554 152.732 34.9735 152.587 35.8257V35.8284Z" fill="black"/>
<path d="M147.178 44.3289C146.308 43.8713 145.392 43.5945 144.475 43.2547C144.431 43.2383 144.408 43.3068 144.444 43.3314C145.277 43.885 146.204 44.1344 147.149 44.3974C147.186 44.4084 147.212 44.3509 147.175 44.3317L147.178 44.3289Z" fill="black"/>
<path d="M152.579 45.4467C151.901 45.1151 151.073 44.959 150.328 45.022C150.286 45.0248 150.26 45.0905 150.304 45.1124C150.987 45.4385 151.81 45.4988 152.55 45.5564C152.605 45.5618 152.628 45.4714 152.579 45.4467Z" fill="black"/>
<path d="M158.489 46.2386C157.998 46.1454 157.406 46.0084 156.915 46.1563C156.871 46.17 156.863 46.233 156.902 46.2577C157.359 46.5454 157.995 46.4167 158.489 46.3235C158.528 46.3153 158.528 46.2468 158.489 46.2413V46.2386Z" fill="black"/>
<path d="M141.567 40.9799C141.009 40.5415 140.175 40.8922 139.721 41.3279C139.474 41.5663 139.308 41.8979 139.305 42.2541C139.305 42.5473 139.451 42.9117 139.705 43.0542C139.76 43.183 139.838 43.3063 139.949 43.4132C140.297 43.7475 140.798 43.764 141.19 43.5146C141.853 43.0926 142.289 41.5471 141.564 40.9799H141.567ZM141.198 42.8844C140.996 43.2269 140.617 43.32 140.271 43.1967C140.152 43.1529 140.058 43.0816 139.983 42.9884C139.983 42.9884 139.983 42.983 139.983 42.9802C139.957 42.8048 139.853 42.6706 139.783 42.5171C139.76 42.3746 139.76 42.2294 139.783 42.0951C139.788 42.0705 139.775 42.0568 139.76 42.0513C139.804 41.928 139.877 41.8129 139.965 41.717C140.248 41.4046 140.757 41.1717 141.17 41.2868C141.777 41.4567 141.396 42.5446 141.198 42.8844Z" fill="black"/>
<path d="M156.526 70.5879C156.147 70.5605 155.747 70.7112 155.375 70.5824C155.061 70.4728 154.89 70.1057 154.807 69.7987C154.602 69.037 154.903 68.1628 155.715 68.0642C155.747 68.0614 155.757 68.0149 155.723 68.0066C154.672 67.6942 154.251 68.9712 154.381 69.8481C154.534 70.8921 155.918 71.8156 156.588 70.7058C156.619 70.6537 156.578 70.5906 156.523 70.5879H156.526Z" fill="black"/>
<path d="M158.889 69.2593C158.605 68.7606 158.052 68.2865 157.481 68.2755C157.203 68.27 156.954 68.4372 156.827 68.6948C156.752 68.8455 156.705 69.0319 156.718 69.2018C156.733 69.4182 156.814 69.5717 156.902 69.7471C156.907 70.0238 156.972 70.2923 157.164 70.5088C157.505 70.8924 158.024 70.8952 158.468 70.7362C159.114 70.5061 159.208 69.8265 158.889 69.262V69.2593ZM158.442 70.18C158.203 70.3471 157.788 70.4348 157.528 70.306C157.307 70.1964 157.175 69.9224 157.102 69.6347C157.131 69.5442 157.162 69.4511 157.177 69.3552C157.196 69.2401 157.232 69.1086 157.266 68.9962C157.307 68.8537 157.385 68.8236 157.484 68.8208C157.79 68.8153 158.159 69.1332 158.377 69.41C158.582 69.6731 158.696 70.0018 158.444 70.1772L158.442 70.18Z" fill="black"/>
<path d="M160.729 69.4099C160.607 69.3332 160.488 69.2866 160.366 69.2455C160.506 68.9715 160.581 68.6701 160.535 68.3495C160.483 67.9987 160.109 67.7439 159.795 67.9028C159.758 67.922 159.75 67.985 159.782 68.0124C159.956 68.1686 160.15 68.2399 160.166 68.5139C160.179 68.7742 160.041 69.0427 159.88 69.2263C159.763 69.3578 159.823 69.5469 159.974 69.6045C160.254 69.7114 160.48 69.6593 160.732 69.5058C160.766 69.4839 160.766 69.4319 160.732 69.4099H160.729Z" fill="black"/>
<path d="M111.836 69.6785C109.526 65.1517 107.248 60.5426 105.47 55.7554C105.301 55.0786 105.156 54.3908 105.065 53.6838C105.065 53.0426 105.065 52.3987 105.062 51.7574C105.101 51.6889 105.13 51.6068 105.13 51.5081C105.13 49.2337 105.137 46.9566 105.13 44.6822C105.6 41.9803 104.6 38.8812 105.67 36.3108C106.075 35.3353 106.898 34.6366 106.986 33.7021C107.147 33.25 107.072 32.7431 106.589 32.2087C104.839 30.2604 101.022 30.5399 99.1575 32.1484C98.6434 32.5923 98.3915 33.1404 98.4616 33.6967C98.4279 33.8912 98.4305 34.0885 98.4928 34.2612C98.942 35.5025 99.7599 35.7737 99.9079 37.3247C100.048 38.8017 100.038 40.2924 100.038 41.7748C100.038 42.1311 100.02 42.501 100.004 42.8709C100.004 42.8709 100.004 42.8709 100.004 42.8764V42.8929C99.9728 43.5505 99.9443 44.2164 99.9962 44.8603C99.9754 48.2226 99.9832 51.5848 99.9962 54.9471C99.6508 56.4076 99.1939 57.7174 98.4461 59.093C97.4879 60.8577 96.4649 62.5841 95.4418 64.3077C93.6892 67.2671 91.3393 70.1224 89.906 73.2545C89.0543 75.1206 91.2199 76.7702 92.3987 77.6992C93.6243 78.6665 95.2108 79.357 96.8206 79.6036C98.9913 80.2695 101.362 80.4585 103.621 80.4229C104.901 80.4914 106.186 80.475 107.466 80.3489C109.206 80.1763 110.961 79.7351 112.449 78.7376C112.771 78.5239 113.059 78.2663 113.316 77.9786C114.036 77.647 114.641 77.1346 114.68 76.2029C114.781 73.8902 112.826 71.6131 111.836 69.6785ZM99.5236 33.8556C98.9368 33.324 100.149 32.5869 100.409 32.4389C101.7 31.7018 105.363 31.3264 106.07 33.1678C106.469 34.2091 103.779 34.7599 103.244 34.8558C102.785 34.938 102.232 34.9928 101.668 34.9818C101.375 34.8147 101.082 34.6585 100.741 34.5407C100.303 34.3872 99.8742 34.1789 99.5236 33.8583V33.8556ZM100.848 57.0461C100.993 56.7337 100.993 56.3089 100.931 55.8541C100.952 52.1931 100.957 48.5322 100.934 44.8713C100.97 44.3616 100.96 43.841 100.972 43.282C101.011 41.5364 101.035 39.7936 100.978 38.0481C100.949 37.2123 100.905 36.4506 100.648 35.6916C101.798 36.0505 103.226 35.8834 104.267 35.6313C104.551 35.5628 104.893 35.4394 105.239 35.275C104.917 35.7984 104.649 36.3437 104.582 36.9849C104.392 38.777 104.091 41.0021 104.182 43.0299C104.182 43.4217 104.182 43.8108 104.177 44.2026C104.057 45.9427 103.93 47.6827 103.772 49.42C103.476 52.6836 103.616 55.4568 104.831 58.4957C105.104 59.1807 105.402 59.863 105.714 60.5371C104.854 60.5289 104.174 61.0769 103.504 61.7565C101.876 63.4089 100.466 61.4249 98.7369 61.4907C98.646 61.4935 98.5577 61.5208 98.4694 61.5373C98.5629 61.3729 98.6616 61.2112 98.7524 61.0468C99.4821 59.7315 100.204 58.4107 100.848 57.0433V57.0461ZM105.072 78.7431C103.234 78.8719 101.385 78.8637 99.56 78.639C99.1367 78.5486 98.6875 78.4637 98.2695 78.439C97.7606 78.3458 97.2542 78.239 96.7505 78.1047C94.8966 77.6115 91.9625 76.3619 91.129 74.2355C91.09 73.8436 91.1835 73.4189 91.4795 72.9531C92.3545 71.5665 93.2763 70.2046 94.1488 68.8126C95.2056 67.1301 96.226 65.4229 97.2283 63.7021C98.0332 62.9924 98.8459 62.3375 100.009 62.8855C100.648 63.1869 101.427 63.6719 102.146 63.6116C102.686 63.5678 103.195 63.4774 103.605 63.0609C103.901 62.7594 104.177 62.4416 104.462 62.1292C105.176 61.3565 105.87 61.5674 106.428 62.0333C107.241 63.7021 108.1 65.349 108.905 66.9986C109.596 68.4098 110.221 69.8621 110.974 71.235C111.733 72.616 112.397 73.7395 112.415 75.1754C112.327 77.9156 106.869 78.6198 105.072 78.7459V78.7431Z" fill="black"/>
<path d="M100.775 68.1302C100.728 68.0453 100.676 67.9521 100.614 67.8726C100.599 67.8096 100.588 67.7439 100.567 67.6808C100.401 67.2287 99.9546 67.1081 99.5989 67.4123C99.2276 67.7302 99.2224 68.3687 99.5496 68.7249C99.8897 69.0893 100.331 69.0783 100.695 68.7714C100.871 68.6235 100.876 68.3193 100.773 68.1302H100.775Z" fill="black"/>
<path d="M103.19 67.4342C103.063 67.3191 102.959 67.2287 102.782 67.2506C102.639 67.2698 102.554 67.3328 102.499 67.4781C102.434 67.6562 102.489 67.785 102.564 67.9439C102.639 68.1083 102.852 68.1878 103.013 68.1357C103.125 68.1001 103.195 68.0508 103.252 67.9439C103.33 67.7877 103.328 67.5575 103.19 67.4342Z" fill="black"/>
<path d="M104.54 65.6226C104.239 65.4363 103.865 65.8117 104.055 66.135C104.065 66.1515 104.075 66.1707 104.086 66.1871C104.132 66.2639 104.221 66.3324 104.312 66.3241L104.358 66.3187C104.696 66.2858 104.862 65.8227 104.538 65.6226H104.54Z" fill="black"/>
<path d="M106.42 72.3996C106.158 71.9502 105.631 72.079 105.418 72.4105C105.418 72.405 105.415 72.4023 105.413 72.3996C105.249 72.6791 105.215 72.975 105.322 73.2874C105.535 73.9039 106.298 73.9039 106.511 73.2874C106.617 72.975 106.586 72.6791 106.423 72.3996H106.42Z" fill="black"/>
<path d="M104.527 74.8164C103.826 74.8164 103.826 75.9618 104.527 75.9618C105.228 75.9618 105.228 74.8164 104.527 74.8164Z" fill="black"/>
<path d="M104.138 73.0406C104.138 73.0242 104.132 73.0049 104.13 72.9885C104.029 72.4295 103.141 72.7474 103.421 73.3037C103.429 73.3174 103.437 73.3338 103.444 73.3502C103.66 73.775 104.216 73.4654 104.14 73.0406H104.138Z" fill="black"/>
<path d="M96.4103 72.824C95.9066 72.6788 95.569 73.1583 95.6365 73.6406C95.6521 73.7639 95.6989 73.8625 95.7508 73.9721C95.9014 74.2818 96.322 74.3092 96.5427 74.079C96.5895 74.0297 96.6388 73.9803 96.6882 73.9337C97.0387 73.5885 96.8517 72.9528 96.4103 72.824Z" fill="black"/>
<path d="M98.794 74.9722C98.6512 74.5557 98.2097 74.5091 97.9761 74.7558C97.9761 74.753 97.9761 74.7476 97.9761 74.7421C97.8722 74.8599 97.8047 74.9887 97.7735 75.1449C97.7683 75.1668 97.7735 75.186 97.7709 75.2052C97.7086 75.2847 97.7268 75.3778 97.7917 75.4272C97.9086 75.83 98.446 75.9889 98.7083 75.556C98.8122 75.3833 98.8667 75.1668 98.7992 74.9668L98.794 74.9722Z" fill="black"/>
<path d="M98.459 72.1199C98.4434 72.0816 98.4253 72.0432 98.4097 72.0049C98.2124 71.561 97.4801 71.6596 97.3996 72.1446C97.3918 72.1857 97.3867 72.2268 97.3789 72.2679C97.314 72.6625 97.5373 73.0571 97.9501 73.0571C98.4279 73.0571 98.646 72.5365 98.459 72.1199Z" fill="black"/>
<path d="M97.8671 27.1501C97.7658 27.183 97.6697 27.2899 97.6801 27.4105C97.7113 27.7859 97.919 28.1915 98.1137 28.4984C98.2098 28.6491 98.6694 29.0382 98.8563 28.8107C99.3263 28.2298 98.5863 26.92 97.8697 27.1501H97.8671Z" fill="black"/>
<path d="M101.873 26.4761C101.705 26.3309 101.458 26.3774 101.388 26.6104C101.261 27.0378 101.31 27.6133 101.71 27.8627C101.741 27.8818 101.783 27.8818 101.814 27.8627C102.273 27.5777 102.266 26.8159 101.871 26.4761H101.873Z" fill="black"/>
<path d="M105.226 25.5115C105.181 25.3471 104.966 25.2677 104.849 25.4074C104.343 26.0075 103.74 27.1831 104.148 27.9586C104.234 28.1203 104.436 28.1312 104.561 28.0161C104.893 27.701 104.992 27.3037 105.111 26.8543C105.231 26.4021 105.353 25.9746 105.226 25.5115Z" fill="black"/>
<path d="M108.531 26.7307C108.261 26.8157 108.084 27.2129 107.918 27.4322C107.672 27.7555 107.544 28.109 107.578 28.52C107.583 28.5776 107.633 28.6379 107.695 28.6132C108.18 28.4077 108.526 28.2351 108.798 27.7309C108.926 27.4952 109.061 26.5608 108.531 26.7307Z" fill="black"/>
<path d="M102.58 57.7203C102.564 57.7121 102.549 57.7039 102.533 57.6957C102.325 57.5833 102.076 57.6381 101.951 57.8573C101.944 57.871 101.936 57.8847 101.928 57.9012C101.71 58.2821 102.066 58.7534 102.465 58.6383C102.845 58.5287 102.956 57.9203 102.58 57.7203Z" fill="black"/>
<path d="M101.811 55.6321C101.811 55.6623 101.811 55.6924 101.811 55.7198C101.803 55.9719 102.034 56.1116 102.245 56.0705C102.31 56.0568 102.356 56.0541 102.393 55.9938C102.393 55.9938 102.393 55.9856 102.393 55.9829C103.073 55.476 101.835 54.8046 101.811 55.6294V55.6321Z" fill="black"/>
<path d="M102.658 50.3543C102.554 50.2912 102.416 50.3076 102.333 50.3981C102.201 50.5351 102.304 50.6365 102.297 50.7872C102.292 50.8639 102.372 50.927 102.442 50.905C102.564 50.8639 102.681 50.8749 102.754 50.7433C102.829 50.6091 102.785 50.4337 102.658 50.3543Z" fill="black"/>
<path d="M89.8645 39.418C89.5659 39.0014 89.2958 38.2397 88.8726 37.878C88.8726 37.8698 88.8726 37.8643 88.8674 37.856C88.7791 37.4861 88.2572 37.4039 88.0832 37.7492C87.4393 39.0289 86.7772 40.2949 86.424 41.7033C86.3851 41.854 86.572 41.9801 86.6785 41.8595C87.364 41.0786 87.8703 40.188 88.3273 39.2591C88.574 40.7169 88.4831 42.3171 88.5298 43.7475C88.5922 45.7205 88.6753 47.6935 88.7999 49.6609C89.0855 54.1439 89.192 58.6516 89.6204 63.1236C89.6282 63.2086 89.7424 63.2113 89.7476 63.1236C90.0359 58.6516 89.6905 54.133 89.488 49.6609C89.3478 46.559 89.5944 43.1611 89.2231 39.9989C89.6542 40.6182 90.1241 41.1361 90.7161 41.6211C90.7966 41.6896 90.9083 41.6294 90.8875 41.5143C90.7369 40.6758 90.3396 40.0948 89.8619 39.4234L89.8645 39.418Z" fill="black"/>
<path d="M78.8473 52.8915C78.1514 52.9326 76.9804 53.6423 76.661 52.5708C76.2845 51.3076 77.3309 48.8441 78.7642 49.1346C78.8135 49.1456 78.8654 49.0908 78.8343 49.0415C78.5279 48.5482 77.8814 48.7099 77.4841 48.9647C76.8324 49.3812 76.4117 50.1485 76.1261 50.8692C75.4718 52.527 76.0586 54.289 77.9697 54.141C78.4968 54.0999 79.1874 53.9656 79.4471 53.4231C79.6496 53.0011 79.1433 52.8751 78.8473 52.8915Z" fill="black"/>
<path d="M84.4143 50.4557C83.9937 48.6609 81.9268 47.9731 80.7765 49.4583C79.9872 50.4749 79.9171 52.4534 80.7973 53.3056C80.8545 53.47 80.9375 53.6262 81.0725 53.7687C81.4724 54.1907 82.0982 54.1852 82.6097 54.0427C84.0923 53.6262 84.7622 51.9327 84.4169 50.4557H84.4143ZM82.0281 53.2371C81.6464 52.8726 81.2258 52.4616 81.0803 51.9601C80.8986 51.3353 81.1271 50.5133 81.5062 50.0173C82.389 48.8746 83.5211 50.0913 83.6146 51.1655C83.7081 52.2232 82.8148 53.1631 82.0255 53.2371H82.0281Z" fill="black"/>
<path d="M86.6941 55.3445C86.5227 55.2513 86.2838 55.0869 86.0865 55.0869C85.9411 55.0869 85.7827 55.0979 85.6243 55.0924C86.0164 54.5991 86.4396 54.0867 86.4552 53.4318C86.4656 53.0262 86.1047 52.6782 85.7282 52.6782C85.5334 52.6782 84.8168 53.007 85.0816 53.3194C85.2192 53.4838 85.5308 53.3742 85.7152 53.429C85.7645 53.4427 85.6243 53.7304 85.5775 53.8209C85.3309 54.2867 84.9881 54.6786 84.7129 55.1225C84.6168 55.2787 84.6714 55.5472 84.8401 55.6267C85.1543 55.7802 85.4555 55.8678 85.8034 55.8733C86.1721 55.8788 86.3851 55.7308 86.6967 55.5472C86.7668 55.5061 86.772 55.3828 86.6967 55.3417L86.6941 55.3445Z" fill="black"/>
<path d="M100.913 147.092C100.913 147.092 107.684 157.001 101.684 163.295C95.6832 169.59 78.7485 175.106 78.7485 175.106L77.2711 150.759C77.2711 150.759 97.5423 139.118 100.913 147.092Z" fill="white"/>
<path d="M58.8616 37.7605C58.8616 37.7605 68.2222 47.0443 69.6659 55.961C71.1095 64.8777 74.5058 84.9114 64.2651 89.6547C64.2651 89.6547 56.839 93.9075 47.8861 90.5974L43.5135 118.709C43.5135 118.709 27.8433 111.823 32.4833 96.6752L36.4716 71.9365C36.4716 71.9365 29.4973 72.6681 28.5574 62.4936C28.5574 62.4936 37.5674 30.6029 58.8616 37.7631V37.7605Z" fill="white"/>
<path d="M45.357 96.242C45.357 96.242 44.5624 92.0742 39.9925 90.008C39.9925 90.008 35.0201 86.58 36.7884 82.4368C38.5566 78.2935 42.815 78.8443 44.4066 82.634C44.4066 82.634 47.9899 89.8217 47.873 90.5753C47.7562 91.3288 61.4555 93.6114 65.5866 88.4927C65.5866 88.4927 69.1232 90.8027 68.3338 94.1266C68.3338 94.1266 66.3656 97.0559 62.2137 96.9901C62.2137 96.9901 68.2221 99.1658 62.7252 102.303C62.7252 102.303 67.1783 105.318 62.7252 107.101C62.7252 107.101 65.5581 110.053 61.3932 111.469C61.3932 111.469 57.4958 113.61 52.7259 110.905C52.7259 110.905 56.2599 131.985 54.7201 138.491C54.7201 138.491 55.268 172.289 34.3762 174.555C34.3762 174.555 15.276 174.697 9.41819 156.743L7.25525 146.448C7.25525 146.448 15.8914 141.724 26.3736 144.599C26.3736 144.599 38.6838 113.297 38.8137 112.609C38.9435 111.922 45.3544 96.2448 45.3544 96.2448L45.357 96.242Z" fill="white"/>
<path d="M64.2182 17.7019C64.8907 17.3731 65.7424 17.6198 66.2409 18.1678C66.7836 18.7679 66.9108 19.6941 66.6772 20.4641C66.4175 21.33 65.6723 21.7054 64.844 21.5766C63.8884 21.4287 63.0991 20.7025 62.3851 20.0723C62.0553 19.779 61.6087 19.8174 61.3646 20.212C60.8739 20.9985 60.287 21.6972 59.6145 22.3165C59.3497 22.5604 59.3782 23.0372 59.6145 23.2865C59.8768 23.5633 60.2689 23.5304 60.5337 23.2865C61.2867 22.5905 61.9385 21.7876 62.4863 20.9053L61.4659 21.045C62.2838 21.7685 63.1406 22.522 64.1896 22.8289C65.1737 23.1166 66.2695 22.9769 67.0666 22.2754C67.817 21.6177 68.1546 20.4531 68.0715 19.4502C67.9858 18.3815 67.5158 17.395 66.672 16.7758C65.7528 16.1017 64.561 16.0277 63.5587 16.5209C63.2419 16.6771 63.1614 17.1594 63.325 17.4581C63.5146 17.8033 63.8936 17.8609 64.213 17.7047L64.2182 17.7019Z" fill="#231F20"/>
<path d="M58.2098 25.1116C58.5783 25.1116 58.8771 24.7963 58.8771 24.4073C58.8771 24.0184 58.5783 23.7031 58.2098 23.7031C57.8412 23.7031 57.5425 24.0184 57.5425 24.4073C57.5425 24.7963 57.8412 25.1116 58.2098 25.1116Z" fill="#231F20"/>
<path d="M69.5101 56.7585C69.5101 56.7585 88.4026 64.2229 87.0888 45.562C86.1306 31.9568 71.9795 31.1785 65.4777 31.4087C63.3408 31.4854 61.2168 30.8305 59.5576 29.4083C57.6855 27.8025 54.0789 26.0214 47.3824 26.2625C35.459 26.69 28.6898 37.2453 26.8723 41.1913C25.0547 45.1372 17.0729 51.3219 20.5081 59.7453C23.9434 68.1688 30.3075 73.8191 30.3075 78.2994C30.3075 79.4119 31.9615 83.8511 34.6697 82.3549L36.1679 72.5422C36.1679 72.5422 29.6791 71.3694 28.4769 65.0778C28.4769 65.0778 27.0436 58.8739 34.5451 59.6631C34.5451 59.6631 37.3363 60.0742 38.4476 63.2391C39.559 66.4041 39.8108 70.1637 42.4853 69.3279C42.4853 69.3279 43.7706 67.6125 43.0591 64.5626C42.3477 61.5127 41.6232 59.1096 41.6232 59.1096C41.6232 59.1096 51.6303 61.6635 56.7299 46.0442L57.6699 43.3917C57.8854 42.7833 58.6929 42.7477 58.9474 43.3396C60.4196 46.7512 64.1457 54.073 68.4403 52.4262L69.5127 56.764L69.5101 56.7585Z" fill="black"/>
<path d="M79.8339 110.856C79.8339 110.856 96.9945 137.014 103.19 152.085C109.388 167.157 82.6746 173.423 82.6746 173.423" stroke="black" stroke-miterlimit="10"/>
<path d="M62.7383 102.325C69.6685 106.217 78.1721 156.765 78.1721 156.765L81.9475 155.195L92.409 150.852L98.607 148.279L104.221 145.947L95.7092 128.114C78.611 99.0701 62.7383 102.325 62.7383 102.325Z" fill="#E6E7E8"/>
<path d="M78.5798 121.825C80.7116 126.806 81.7969 151.515 81.9475 155.195L92.409 150.852C90.6278 142.96 78.5798 121.825 78.5798 121.825Z" fill="black"/>
<path d="M40.3223 172.869C35.2045 175.242 28.9805 174.023 24.2133 172.434C19.0929 170.727 14.297 164.449 14.3308 165.622V181.504H82.7913C82.7913 181.504 83.6508 144.404 80.4181 125.639C78.063 111.982 69.2945 106.455 64.6882 104.454C64.8284 105.238 64.4208 106.129 62.7356 106.978C62.7356 106.978 66.1605 109.669 60.474 111.724C60.0923 111.861 59.7106 111.965 59.3316 112.034C55.8963 112.694 52.7363 110.921 52.7363 110.921C52.7363 110.921 62.2631 162.689 40.3223 172.864V172.869Z" fill="#E6E7E8"/>
<path d="M1.0054 149.098L7.26827 146.207L8.65221 145.509C8.66779 145.498 8.68859 145.492 8.70936 145.481C11.6019 144.218 18.4801 141.889 25.8907 144.347C26.3243 144.495 26.7839 144.204 26.8774 143.73C28.1834 136.699 33.2857 125.165 38.31 113.656C34.6644 111.53 30.3074 104.455 32.3275 97.6999C32.3275 97.6999 18.584 94.7843 11.1112 106.943C3.63312 119.096 -0.409716 137.365 1.0054 149.093V149.098Z" fill="#E6E7E8"/>
<path d="M68.8375 52.4207C68.8375 52.4207 76.5804 81.0696 65.8307 88.3367" stroke="black" stroke-miterlimit="10"/>
<path d="M71.8314 45.244C71.8314 45.244 68.3468 53.7031 61.9437 47.0553C61.1024 46.1811 60.3806 45.1864 59.7497 44.1342L57.9892 41.1912C57.9892 41.1912 54.7565 60.918 41.6206 59.104C41.6206 59.104 45.3596 70.0869 41.8231 69.3415C38.2866 68.5962 40.2055 59.3178 32.9325 59.5315C25.6596 59.7452 27.6797 70.6212 36.1653 72.5393L32.325 97.7028" stroke="black" stroke-miterlimit="10"/>
<path d="M59.3316 112.182C59.7107 112.108 60.0924 112.007 60.474 111.87C66.1579 109.817 62.7356 107.126 62.7356 107.126C67.1809 104.887 62.7356 102.328 62.7356 102.328C67.9884 98.7027 62.2241 97.0148 62.2241 97.0148C73.6411 96.3763 65.8281 88.342 65.8281 88.342C59.7262 94.6143 47.8834 90.5999 47.8834 90.5999C47.8834 90.5999 43.2356 74.3915 37.3752 81.0036C37.3752 81.0036 34.7475 85.4812 38.7903 89.1065C38.7903 89.1065 46.4683 93.584 45.2557 97.4231C44.0795 101.144 28.8014 133.649 26.8695 144.02C26.7813 144.495 26.3217 144.785 25.8854 144.64C16.1094 141.395 7.26562 146.473 7.26562 146.473C9.36363 168.62 23.3616 173.401 30.4502 174.39C33.7971 174.859 37.2324 174.462 40.3197 173.015C62.2293 162.758 52.7337 111.069 52.7337 111.069C52.7337 111.069 55.8963 112.842 59.329 112.182H59.3316Z" stroke="black" stroke-miterlimit="10"/>
<path d="M29.3571 135.564C29.3571 135.564 26.3996 144.05 26.1296 147.818" stroke="black" stroke-miterlimit="10"/>
<path d="M66.0982 63.9046C66.8382 63.9046 67.438 63.2716 67.438 62.4907C67.438 61.7098 66.8382 61.0767 66.0982 61.0767C65.3583 61.0767 64.7584 61.7098 64.7584 62.4907C64.7584 63.2716 65.3583 63.9046 66.0982 63.9046Z" fill="black"/>
<path d="M54.2761 63.9046C55.0161 63.9046 55.6159 63.2716 55.6159 62.4907C55.6159 61.7098 55.0161 61.0767 54.2761 61.0767C53.5361 61.0767 52.9363 61.7098 52.9363 62.4907C52.9363 63.2716 53.5361 63.9046 54.2761 63.9046Z" fill="black"/>
<path d="M60.5857 79.9597C60.5857 79.9597 63.5172 78.743 61.44 78.247C59.3627 77.7511 50.7838 79.365 50.7838 79.365" stroke="black" stroke-miterlimit="10"/>
<path d="M60.6169 60.5261C60.6169 60.5261 64.3377 71.6158 63.6626 72.5393C62.9901 73.4627 60.0093 74.1395 60.0093 74.1395" stroke="black" stroke-miterlimit="10"/>
<path d="M57.3997 58.9617C57.3997 58.9617 52.7961 56.131 49.5712 58.9617" stroke="black" stroke-miterlimit="10"/>
<path d="M69.51 58.9612C69.51 58.9612 67.0148 53.204 63.1771 59.2462" stroke="black" stroke-miterlimit="10"/>
<path d="M31.2136 66.3354C31.2136 66.3354 35.2539 61.1509 38.4891 68.818" stroke="black" stroke-miterlimit="10"/>
<path d="M63.5199 96.8971C63.5199 96.8971 58.898 97.5959 54.7565 96.2642" stroke="black" stroke-miterlimit="10"/>
<path d="M63.1174 102.183C63.1174 102.183 58.293 103.89 53.4426 101.997" stroke="black" stroke-miterlimit="10"/>
<path d="M62.9745 107C62.9745 107 59.0512 108.447 55.6912 106.822" stroke="black" stroke-miterlimit="10"/>
<path d="M29.2688 15.3287C29.0974 14.5998 29.2974 13.8106 29.7492 13.2324C30.2659 12.572 31.0475 12.2788 31.8446 12.3144C32.6417 12.35 33.522 12.7529 33.927 13.4982C34.3321 14.2435 34.1581 15.1807 33.792 15.8849C33.2779 16.8742 32.4003 17.5921 31.5823 18.2854C31.3097 18.5155 31.3538 19.017 31.5823 19.2554C32.3587 20.061 33.0156 20.9571 33.5557 21.9545C33.9712 22.719 35.0928 22.0312 34.6774 21.264C34.0854 20.1733 33.3506 19.1705 32.5015 18.2881V19.2582C33.4233 18.4772 34.3762 17.6523 34.9397 16.5316C35.5031 15.4108 35.6589 14.0462 35.0981 12.9035C33.9764 10.6237 30.6294 10.336 28.9884 12.087C28.1056 13.0268 27.7161 14.408 28.0173 15.6959C28.2172 16.5508 29.4687 16.1891 29.2688 15.3314V15.3287Z" fill="#231F20"/>
<path d="M35.4745 25.1583C35.9176 25.1583 36.2768 24.7792 36.2768 24.3116C36.2768 23.844 35.9176 23.4648 35.4745 23.4648C35.0314 23.4648 34.6722 23.844 34.6722 24.3116C34.6722 24.7792 35.0314 25.1583 35.4745 25.1583Z" fill="#231F20"/>
<path d="M49.7244 7.1957C50.3087 6.40926 51.1811 5.98449 52.1288 5.99819C53.0766 6.01189 53.9516 6.54627 54.528 7.3382C55.1045 8.13012 55.4472 9.28924 55.1979 10.2894C54.9487 11.2896 54.1178 11.8924 53.2402 12.1692C51.8588 12.6049 50.3839 12.2103 49.0233 11.8677C48.5767 11.7554 48.2496 12.0815 48.2029 12.5282C48.0549 13.901 47.7043 15.2465 47.2084 16.5234C47.0759 16.866 47.3538 17.2769 47.6628 17.3674C48.0341 17.4742 48.3275 17.2331 48.4625 16.8878C49.0052 15.4876 49.3401 14.0298 49.5037 12.5282L48.6832 13.1885C50.2308 13.5749 51.877 13.9695 53.4557 13.5311C54.689 13.1885 55.8289 12.3391 56.3223 11.0676C57.3557 8.40137 55.3511 5.08569 52.726 4.68562C51.2875 4.4664 49.727 4.99804 48.8156 6.2284C48.6001 6.51886 48.5456 6.91346 48.8156 7.19844C49.0389 7.4341 49.5167 7.49165 49.7348 7.19844L49.7244 7.1957Z" fill="#231F20"/>
<path d="M46.4035 21.0861C46.9369 21.0861 47.3694 20.6297 47.3694 20.0667C47.3694 19.5037 46.9369 19.0474 46.4035 19.0474C45.87 19.0474 45.4376 19.5037 45.4376 20.0667C45.4376 20.6297 45.87 21.0861 46.4035 21.0861Z" fill="#231F20"/>
</svg>
