<svg width="539" height="526" viewBox="0 0 539 526" fill="none" xmlns="http://www.w3.org/2000/svg">
<g filter="url(#filter0_b_415_218)">
<path d="M538.244 522.307H247.354C247.354 522.307 226.536 319.857 265.164 250.53C265.571 249.814 265.963 249.121 266.378 248.442C266.378 248.442 298.019 195.087 376.956 192.358C379.096 192.268 381.267 192.23 383.498 192.253H385.028C385.028 192.253 386.528 191.589 389.257 190.805H389.271C390.108 190.572 391.058 190.323 392.121 190.074L392.407 190.022C392.588 189.969 392.761 189.931 392.942 189.893L393.033 189.878C394.48 189.554 396.115 189.253 397.917 189.004C399.183 188.823 400.54 188.665 401.979 188.544C419.609 187.044 448.793 190.933 478.919 222.364C527.082 272.576 538.244 522.307 538.244 522.307Z" fill="#E5E6E8"/>
<path d="M401.979 188.544C402.816 275.094 344.32 278.35 344.32 278.35L290.233 256.44C281.376 255.211 272.942 253.108 265.171 250.523C235.279 240.664 214.845 223.924 214.845 223.924C169.064 187.919 174.649 129.573 174.649 129.573L316.153 125.511C330.037 145.62 339.684 137.261 339.684 137.261C339.684 137.261 334.604 132.505 330.466 125.066C327.331 119.413 324.014 112.321 328.092 104.052C337.468 85.066 361.64 92.6637 363.69 106.834C366.969 129.506 353.153 137.193 353.153 137.193L376.948 192.366L377.536 193.753L383.49 192.253L389.249 190.806H389.264L392.113 190.074L392.399 190.022L392.723 189.931L392.934 189.894L393.025 189.878L397.909 189.004C399.175 188.823 400.532 188.665 401.972 188.544H401.979Z" fill="white"/>
<path d="M359.673 175.392C365.786 193.956 364.625 209.287 361.678 220.329C358.211 233.293 349.068 243.815 336.805 249.272C283.901 272.81 216.994 232.479 201.565 213.297C168.085 171.646 174.642 129.588 174.642 129.588C174.642 129.588 228.744 187.489 269.377 149.766C269.377 149.766 321.731 158.644 314.193 119.353C314.193 119.353 323.404 145.168 339.677 137.261C339.677 137.261 324.798 122.843 326.652 109.359C328.514 95.8745 342.465 86.7847 356.877 96.8016C370.217 106.072 364.316 131.081 353.153 137.193L392.362 228.145" stroke="black" stroke-miterlimit="10"/>
<path d="M390.478 188.273C390.478 188.273 392.226 198.177 381.998 120.981C371.77 43.7849 337.355 0.536472 258.765 1.00378C180.175 1.47109 174.642 66.5699 174.642 66.5699C174.642 66.5699 134.137 80.054 131.816 115.63C129.494 151.205 151.857 188.869 153.229 207.47C154.601 226.072 140.069 275.011 140.069 275.011L238.045 243.453" stroke="black" stroke-miterlimit="10"/>
<path d="M350.93 340.329L373.979 423.66L231.955 494.713L89.9315 434.755L108.059 328.94L234.405 407.583L350.93 340.329Z" fill="#132E90"/>
<path d="M289.456 178.06C289.456 178.06 304.455 181.896 307.244 167.598" stroke="black" stroke-miterlimit="10"/>
<path d="M232.867 214.502C232.867 214.502 247.866 218.339 250.655 204.041" stroke="black" stroke-miterlimit="10"/>
<path d="M298.35 235.26C298.35 235.26 320.148 234.913 324.331 207.011" stroke="black" stroke-miterlimit="10"/>
<path d="M229.815 185.288C229.815 185.288 218.652 184.693 217.604 193.76" stroke="black" stroke-miterlimit="10"/>
<path d="M295.554 149.389C295.554 149.389 284.391 148.793 283.344 157.86" stroke="black" stroke-miterlimit="10"/>
<path d="M354.02 107.926C354.02 107.926 345.488 100.751 341.305 123.069" stroke="black" stroke-miterlimit="10"/>
<path d="M174.642 129.581C174.642 129.581 207.135 167.9 246.901 161.644C246.901 161.644 262.202 158.772 269.377 149.758C269.377 149.758 299.941 155.268 309.347 141.814C309.347 141.814 314.578 141.324 314.751 123.069C314.751 123.069 326.434 145.974 339.684 137.254C339.684 137.254 325.461 125.925 327.165 106.826C327.165 106.826 335.23 82.3376 358.03 97.6683C358.03 97.6683 376.421 115.147 353.168 137.186L377.438 194.235L392.128 190.074C392.128 190.074 381.606 109.117 376.722 92.543C371.838 75.9687 357.645 -3.87279 250.662 1.29773C250.662 1.29773 186.438 0.423311 174.649 66.5773C174.649 66.5773 127.859 80.5514 131.929 127.915C131.929 127.915 136.881 163.551 147.252 185.281C147.252 185.281 154.186 197.891 153.319 209.505C152.453 221.12 139.805 267.014 139.805 267.014L232.874 237.016C232.874 237.016 228.918 235.471 223.061 231.861C205.492 221.03 170.836 191.605 174.649 129.588L174.642 129.581Z" fill="black"/>
<path d="M265.164 250.53C265.164 250.53 226.227 234.898 218.893 228.069L216.602 240.325L265.126 256.44L265.164 250.523V250.53Z" fill="black"/>
<path d="M225.579 423.389L390.734 463.306L354.382 356.564L225.579 423.389Z" fill="#132E90"/>
<path d="M134.439 359.383C134.439 359.383 142.933 443.845 250.557 465.635C250.557 465.635 269.257 478.719 238.565 491.804C207.271 505.145 11.5447 475.885 92.2681 333.168L134.439 359.383Z" fill="white" stroke="black" stroke-miterlimit="10"/>
<path d="M219.963 445.669C219.963 445.669 222.066 419.417 178.893 388.883C178.893 388.883 160.879 371.337 156.56 396.255C156.56 396.255 157.653 407.455 173.722 414.125C173.722 414.125 177.559 415.957 176.089 417.329C174.619 418.701 171.017 416.168 169.238 415.037C167.459 413.907 122.748 381.987 121.829 381.625C120.909 381.263 109.053 379.763 107.772 394.453C107.772 394.453 109.777 404.696 111.774 405.774C113.772 406.852 103.898 406.769 105.601 416.138C107.305 425.507 114.149 429.991 114.149 429.991C114.149 429.991 103.732 432.667 114.239 446.528L121.053 453.349C121.053 453.349 114.111 453.379 117.947 460.019C121.784 466.66 138.554 478.923 153.967 481.252C169.374 483.581 177.762 483.4 177.762 483.4L204.067 497.969L226.8 507.481C226.8 507.481 272.611 521.742 293.059 521.666C313.507 521.583 344.267 520.347 373.979 504.429C373.979 504.429 399.175 494.713 422.94 463.306C446.351 432.358 444.904 431.31 444.904 431.31C444.904 431.31 488.047 375.663 491.86 345.567C491.86 345.567 501.169 307.625 497.287 286.875C493.405 266.125 481.896 228.786 445.28 228.273C445.28 228.273 417.084 220.563 398.324 270.512C398.324 270.512 380.641 302.733 374.83 344.421C374.83 344.421 368.1 369.452 353.266 399.187C350.229 405.277 346.603 410.425 341.32 416.507C341.32 416.507 315.799 440.355 265.277 445.699C251.891 447.116 236.899 448.774 219.978 446.513" fill="white"/>
<path d="M173.006 441.252C173.006 441.252 138.411 425.718 117.774 412.09C97.1443 398.471 111.005 378.286 120.216 381.105C128.198 383.547 174.363 422.673 175.396 417.17C176.428 411.668 147.259 405.865 157.608 388.386C164.391 376.922 178.403 385.514 198.083 405.51C218.335 426.087 219.518 443.852 219.262 446.339C219.262 446.339 329.833 456.688 354.02 397.378C378.199 338.068 390.734 289.799 390.734 289.799C404.218 233.444 432.06 226.419 432.06 226.419C524.18 227.813 514.698 344.768 426.724 458.55C329.042 584.881 177.061 483.234 177.061 483.234C155.776 484.794 141.441 478.033 125.175 466.871C107.305 454.608 121.309 453.002 121.309 453.002" stroke="black" stroke-miterlimit="10"/>
<path d="M110.613 405.518C110.613 405.518 97.9357 408.94 109.159 425.205C120.389 441.47 175.396 458.565 175.396 458.565" stroke="black" stroke-miterlimit="10"/>
<path d="M112.709 429.17C112.709 429.17 103.995 432.652 114.178 447.312C124.361 461.972 163.08 466.878 163.08 466.878" stroke="black" stroke-miterlimit="10"/>
<path d="M490.451 236.926C479.13 218.769 456.669 210.855 436.19 217.058C418.968 222.281 402.514 233.994 395.15 258.927C383.061 299.846 359.598 380.705 359.598 380.705L477.826 417.743C477.826 417.743 516.839 307.285 506.633 275.878C501.9 261.301 497.197 247.749 490.451 236.926Z" fill="#E5E6E8"/>
<path d="M369.735 348.597C365.492 358.84 359.598 380.698 359.598 380.698L477.826 417.736C477.826 417.736 508.337 340.087 505.337 288.352" stroke="black" stroke-miterlimit="10"/>
<path d="M223.054 231.853L1 311.717L225.578 423.389L436.793 313.813L223.054 231.853Z" fill="#132E90"/>
<path d="M122.975 316.616C122.975 316.616 56.0065 330.523 53.2177 405.254C50.429 479.985 53.2177 511.272 53.2177 511.272" stroke="#2C292D" stroke-miterlimit="10"/>
<path d="M1 311.717L225.578 423.389L436.793 313.813" stroke="black" stroke-miterlimit="10"/>
<path d="M65.3075 482.774C79.2589 515.327 80.1859 526 80.1859 526H30.8925C30.8925 526 51.3561 450.221 65.3075 482.774Z" fill="#132E90"/>
</g>
<defs>
<filter id="filter0_b_415_218" x="-3.22263" y="-3.49997" width="545.467" height="533.5" filterUnits="userSpaceOnUse" color-interpolation-filters="sRGB">
<feFlood flood-opacity="0" result="BackgroundImageFix"/>
<feGaussianBlur in="BackgroundImageFix" stdDeviation="2"/>
<feComposite in2="SourceAlpha" operator="in" result="effect1_backgroundBlur_415_218"/>
<feBlend mode="normal" in="SourceGraphic" in2="effect1_backgroundBlur_415_218" result="shape"/>
</filter>
</defs>
</svg>
