<svg width="50" height="49" viewBox="0 0 50 49" fill="none" xmlns="http://www.w3.org/2000/svg">
<circle cx="25.025" cy="24.405" r="23.405" stroke="white" stroke-width="2"/>
<g clip-path="url(#clip0_288_761)">
<path d="M41.0177 36.9617V36.9604H41.0249V26.3015C41.0249 21.0871 39.9024 17.0703 33.8064 17.0703C30.8758 17.0703 28.9092 18.6785 28.1064 20.2031H28.0216V17.5571H22.2416V36.9604H28.2601V27.3526C28.2601 24.8229 28.7397 22.3768 31.8725 22.3768C34.9592 22.3768 35.0052 25.2637 35.0052 27.5149V36.9617H41.0177Z" fill="white"/>
<path d="M12.4413 17.5586H18.4671V36.9619H12.4413V17.5586Z" fill="white"/>
<path d="M15.4518 7.89844C13.5251 7.89844 11.9618 9.4618 11.9618 11.3884C11.9618 13.3151 13.5251 14.9111 15.4518 14.9111C17.3784 14.9111 18.9418 13.3151 18.9418 11.3884C18.9406 9.4618 17.3772 7.89844 15.4518 7.89844V7.89844Z" fill="white"/>
</g>
<defs>
<clipPath id="clip0_288_761">
<rect width="29.0632" height="29.0632" fill="white" transform="translate(11.9618 7.89844)"/>
</clipPath>
</defs>
</svg>
