<svg width="205" height="234" viewBox="0 0 205 234" fill="none" xmlns="http://www.w3.org/2000/svg">
<path d="M124.365 171.43C124.365 171.43 142.034 178.729 159.558 167.832C159.558 167.832 164.542 154 175.523 152.206C175.523 152.206 185.066 152.306 184.843 155.413C184.843 155.413 185.735 159.87 181.793 160.155C177.85 160.439 173.577 160.061 173.07 164.14L174.573 165.063C174.573 165.063 184.051 167.628 188.556 164.639C193.061 161.65 199.528 156.659 202.811 162.792C202.811 162.792 204.151 166.573 200.423 168.388C200.423 168.388 203.21 174.231 197.964 176.339C197.964 176.339 203.003 180.547 196.26 182.757L190.32 183.455C190.32 183.455 193.02 188.219 188.556 188.262C184.091 188.305 172.714 186.932 169.339 185.243C169.339 185.243 150.183 195.021 142.998 196.575C135.814 198.13 119.751 202.233 110.58 196.575C110.58 196.575 95.1687 186.476 99.0883 174.739C103.008 163.001 124.365 171.428 124.365 171.428V171.43Z" fill="white"/>
<path d="M173.864 165.063C173.864 165.063 185.465 168.425 192.131 162.383C198.65 156.478 207.996 163.643 200.423 168.385C192.851 173.127 183.385 171.497 183.385 171.497" stroke="#231F20" stroke-miterlimit="10"/>
<path d="M199.669 168.836C199.669 168.836 203.307 172.04 199.161 175.804C195.017 179.567 183.382 176.218 183.382 176.218" stroke="#231F20" stroke-miterlimit="10"/>
<path d="M197.964 176.336C197.964 176.336 200.762 178.154 199.255 180.799C197.749 183.444 187.764 185.649 181.075 180.182" stroke="#231F20" stroke-miterlimit="10"/>
<path d="M190.317 183.455C190.317 183.455 193.976 187.977 187.48 188.38C180.983 188.785 169.339 185.243 169.339 185.243C169.339 185.243 154.611 193.536 144.103 196.293C109.24 205.442 96.4456 192.29 96.8732 176.336C97.2978 160.445 111.002 160.152 111.002 160.152C128.522 185.332 159.374 168.385 159.374 168.385C159.374 168.385 163.974 152.182 178.036 151.989C178.036 151.989 183.901 151.989 184.846 155.41C184.846 155.41 186.447 160.963 179.572 160.434C174.387 160.034 172.742 163.208 173.072 164.137C173.402 165.066 179.006 167.84 177.124 172.776" stroke="#231F20" stroke-miterlimit="10"/>
<path d="M86.2593 144.505L126.17 167.832L109.521 201.019L80.5176 144L86.2593 144.505Z" fill="black"/>
<path d="M18.6452 149.064C20.8833 146.32 31.6091 136.803 38.1455 135.479L53.4996 137.63C69.4189 140.149 83.806 143.13 87.803 143.976C88.5032 144.123 89.1029 144.537 89.4587 145.122C90.9393 147.547 102.973 177.668 108.187 192.875C114.939 212.601 123.205 234 123.205 234H0C0 234 11.7989 157.475 18.6452 149.07V149.064Z" fill="#E5E6E8"/>
<path d="M62.828 121.833C89.3382 129.607 98.701 118.831 98.701 118.831C105.16 110.063 101.654 88.0519 90.4601 77.4612C86.3397 73.5621 67.8523 59.6201 67.8523 59.6201C67.8523 59.6201 75.3155 75.995 45.9015 89.0589C44.8657 89.5181 44.5644 90.7668 45.3018 91.5858C48.2573 94.8699 54.3146 102.214 51.9445 104.832C51.9445 104.832 51.6719 105.759 48.9976 103.326C42.6534 97.5552 32.4326 98.1325 35.6262 107.923C39.52 119.856 52.5728 113.506 52.5728 113.506C52.6675 114.086 52.7421 114.669 52.7938 115.254L51.5685 137.362" fill="white"/>
<path d="M98.701 118.831L99.0784 119.159L99.0916 119.143L99.1035 119.127L98.701 118.831ZM90.4601 77.4612L90.1165 77.8243L90.1165 77.8244L90.4601 77.4612ZM67.8523 59.6201L68.1533 59.2209L66.5801 58.0345L67.3973 59.8275L67.8523 59.6201ZM45.9015 89.0589L46.1041 89.516L46.1045 89.5159L45.9015 89.0589ZM45.3018 91.5858L45.6735 91.2513L45.6734 91.2512L45.3018 91.5858ZM51.9445 104.832L51.5738 104.497L51.4971 104.581L51.4648 104.691L51.9445 104.832ZM48.9976 103.326L49.3341 102.956L49.334 102.956L48.9976 103.326ZM35.6262 107.923L35.1509 108.078L35.1509 108.078L35.6262 107.923ZM52.5728 113.506L53.0663 113.425L52.9581 112.762L52.3541 113.056L52.5728 113.506ZM52.7938 115.254L53.293 115.282L53.295 115.246L53.2918 115.21L52.7938 115.254ZM51.196 137.695C51.3801 137.901 51.6962 137.919 51.902 137.734L55.2552 134.733C55.4609 134.549 55.4785 134.233 55.2943 134.027C55.1101 133.822 54.794 133.804 54.5883 133.988L51.6077 136.656L48.9401 133.675C48.7559 133.469 48.4398 133.452 48.2341 133.636C48.0283 133.82 48.0108 134.136 48.1949 134.342L51.196 137.695ZM62.6873 122.313C76.0199 126.222 85.0889 125.481 90.8515 123.725C93.7307 122.848 95.7756 121.721 97.1072 120.805C97.7728 120.347 98.2596 119.942 98.583 119.649C98.7447 119.502 98.8656 119.383 98.9475 119.299C98.9885 119.257 99.0197 119.223 99.0414 119.2C99.0523 119.188 99.0608 119.179 99.067 119.172C99.07 119.168 99.0725 119.165 99.0744 119.163C99.0754 119.162 99.0762 119.161 99.0769 119.16C99.0772 119.16 99.0776 119.16 99.0778 119.159C99.0781 119.159 99.0784 119.159 98.701 118.831C98.3236 118.503 98.3238 118.502 98.324 118.502C98.324 118.502 98.3242 118.502 98.3243 118.502C98.3244 118.502 98.3243 118.502 98.3241 118.502C98.3237 118.503 98.3228 118.504 98.3213 118.505C98.3182 118.509 98.3129 118.515 98.3052 118.523C98.2899 118.54 98.2653 118.566 98.2312 118.601C98.1631 118.671 98.0569 118.776 97.9108 118.908C97.6186 119.174 97.1669 119.55 96.5405 119.981C95.2881 120.843 93.3354 121.923 90.5601 122.769C85.0138 124.458 76.1463 125.217 62.9687 121.353L62.6873 122.313ZM99.1035 119.127C102.456 114.576 103.169 106.709 101.692 98.7386C100.21 90.7442 96.4982 82.4858 90.8038 77.098L90.1165 77.8244C95.6155 83.0273 99.2535 91.07 100.709 98.9208C102.168 106.795 101.405 114.318 98.2984 118.534L99.1035 119.127ZM90.8038 77.098C88.721 75.1271 83.0447 70.6488 77.9169 66.683C75.3471 64.6955 72.9064 62.8301 71.1081 61.4616C70.209 60.7773 69.4704 60.2172 68.9565 59.8282C68.6996 59.6336 68.4989 59.4819 68.3623 59.3787C68.2941 59.3271 68.2418 59.2877 68.2067 59.2612C68.1891 59.2479 68.1758 59.2378 68.1668 59.2311C68.1624 59.2277 68.159 59.2252 68.1567 59.2235C68.1556 59.2226 68.1548 59.222 68.1542 59.2216C68.1539 59.2213 68.1537 59.2212 68.1536 59.2211C68.1534 59.221 68.1533 59.2209 67.8523 59.6201C67.5512 60.0193 67.5513 60.0194 67.5514 60.0195C67.5516 60.0196 67.5518 60.0197 67.552 60.0199C67.5526 60.0204 67.5534 60.021 67.5546 60.0218C67.5568 60.0235 67.5601 60.026 67.5646 60.0294C67.5734 60.0361 67.5867 60.0461 67.6042 60.0593C67.6393 60.0858 67.6913 60.1251 67.7595 60.1766C67.8958 60.2795 68.0962 60.4311 68.3529 60.6254C68.8662 61.0141 69.6041 61.5737 70.5025 62.2574C72.2994 63.6248 74.738 65.4886 77.3052 67.474C82.4512 71.454 88.0788 75.8962 90.1165 77.8243L90.8038 77.098ZM67.8523 59.6201C67.3973 59.8275 67.3972 59.8271 67.397 59.8269C67.397 59.8269 67.3969 59.8267 67.3969 59.8266C67.3969 59.8266 67.397 59.8268 67.3972 59.8273C67.3976 59.8282 67.3985 59.8301 67.3997 59.8329C67.4022 59.8386 67.4064 59.8482 67.412 59.8616C67.4233 59.8885 67.4406 59.9305 67.4624 59.9871C67.5061 60.1004 67.5681 60.272 67.6379 60.4972C67.7775 60.9477 67.9476 61.6117 68.0635 62.4512C68.2952 64.1293 68.31 66.5082 67.4304 69.2898C65.676 74.8377 60.3214 82.1074 45.6986 88.602L46.1045 89.5159C60.8956 82.9466 66.5164 75.4968 68.3839 69.5913C69.3152 66.6462 69.3027 64.1149 69.0541 62.3144C68.9299 61.4147 68.7468 60.6973 68.5931 60.2013C68.5163 59.9532 68.4467 59.7603 68.3954 59.6273C68.3698 59.5608 68.3487 59.5093 68.3336 59.4733C68.326 59.4554 68.3199 59.4413 68.3154 59.4311C68.3132 59.4261 68.3114 59.422 68.31 59.4189C68.3094 59.4174 68.3088 59.4161 68.3083 59.4151C68.3081 59.4146 68.3078 59.414 68.3077 59.4137C68.3075 59.4132 68.3073 59.4128 67.8523 59.6201ZM45.6989 88.6018C44.3773 89.1877 43.9472 90.8286 44.9302 91.9203L45.6734 91.2512C45.1815 90.705 45.354 89.8486 46.1041 89.516L45.6989 88.6018ZM44.9301 91.9202C46.4026 93.5565 48.6314 96.1867 50.1946 98.7213C50.9782 99.9917 51.575 101.207 51.8374 102.243C52.1025 103.289 51.9987 104.027 51.5738 104.497L52.3151 105.168C53.0752 104.328 53.1031 103.167 52.8067 101.997C52.5076 100.816 51.8497 99.4997 51.0458 98.1963C49.434 95.5831 47.1564 92.8992 45.6735 91.2513L44.9301 91.9202ZM51.9445 104.832C51.4648 104.691 51.465 104.69 51.4653 104.69C51.4653 104.689 51.4656 104.689 51.4657 104.688C51.466 104.687 51.4663 104.686 51.4667 104.685C51.4673 104.683 51.4679 104.681 51.4686 104.679C51.4699 104.675 51.4712 104.671 51.4725 104.667C51.4752 104.66 51.4781 104.652 51.4811 104.645C51.487 104.631 51.4939 104.618 51.5018 104.605C51.5179 104.579 51.5394 104.554 51.5665 104.534C51.6337 104.486 51.6625 104.517 51.5625 104.499C51.3123 104.454 50.6674 104.169 49.3341 102.956L48.6611 103.696C50.0021 104.916 50.8306 105.384 51.3852 105.483C51.6876 105.538 51.9517 105.49 52.1536 105.344C52.2481 105.275 52.3117 105.197 52.3532 105.13C52.3739 105.096 52.3892 105.065 52.4004 105.039C52.4061 105.026 52.4108 105.013 52.4146 105.003C52.4166 104.997 52.4183 104.992 52.4199 104.987C52.4207 104.985 52.4214 104.982 52.4221 104.98C52.4225 104.979 52.4228 104.978 52.4232 104.977C52.4233 104.976 52.4236 104.975 52.4236 104.975C52.4239 104.974 52.4241 104.973 51.9445 104.832ZM49.334 102.956C46.079 99.9952 41.7786 98.6096 38.6281 99.3006C37.0324 99.6506 35.7068 100.544 35.0207 102.056C34.3421 103.552 34.3306 105.563 35.1509 108.078L36.1016 107.768C35.3251 105.387 35.3936 103.655 35.9314 102.469C36.4618 101.3 37.4891 100.574 38.8424 100.277C41.5899 99.6748 45.572 100.886 48.6612 103.696L49.334 102.956ZM35.1509 108.078C36.156 111.159 37.7697 113.103 39.656 114.256C41.5339 115.404 43.6344 115.739 45.5725 115.689C47.5103 115.64 49.3125 115.206 50.6242 114.788C51.2816 114.579 51.8198 114.372 52.195 114.218C52.3827 114.14 52.5299 114.076 52.6311 114.03C52.6817 114.007 52.7208 113.989 52.7478 113.976C52.7613 113.97 52.7717 113.965 52.779 113.961C52.7827 113.96 52.7856 113.958 52.7877 113.957C52.7887 113.957 52.7896 113.956 52.7902 113.956C52.7906 113.956 52.7909 113.956 52.7911 113.956C52.7913 113.956 52.7916 113.955 52.5728 113.506C52.3541 113.056 52.3542 113.056 52.3543 113.056C52.3543 113.056 52.3543 113.056 52.3542 113.056C52.3541 113.056 52.3538 113.056 52.3532 113.057C52.3521 113.057 52.3503 113.058 52.3477 113.059C52.3424 113.062 52.3341 113.066 52.3228 113.071C52.3001 113.082 52.2655 113.098 52.2195 113.119C52.1276 113.16 51.9905 113.22 51.8137 113.293C51.4599 113.439 50.9479 113.636 50.3208 113.835C49.0634 114.235 47.3591 114.643 45.5469 114.69C43.735 114.736 41.8422 114.421 40.1776 113.403C38.5215 112.391 37.0434 110.654 36.1016 107.768L35.1509 108.078ZM52.0794 113.586C52.1722 114.155 52.2452 114.726 52.2957 115.298L53.2918 115.21C53.239 114.612 53.1628 114.017 53.0663 113.425L52.0794 113.586ZM52.2945 115.226L51.0693 137.334L52.0678 137.39L53.293 115.282L52.2945 115.226Z" fill="black"/>
<path d="M80.2021 124.636L80.8419 142.644" stroke="black" stroke-miterlimit="10"/>
<path d="M59.3015 47.1847C31.7497 50.4768 33.2963 72.4613 33.2963 72.4613C33.2963 72.4613 12.961 82.3029 23.8618 103.45C29.1013 113.613 47.5084 119.878 47.5084 119.878C47.5084 119.878 30.8689 116.771 32.5159 130.055C32.9118 133.254 32.2719 132.7 31.3968 134.548C30.8975 135.6 31.7124 140.026 32.9032 139.738C38.2374 138.45 47.7781 132.684 52.4953 121.148L52.5728 113.506C52.5728 113.506 43.1899 118.468 37.3421 111.406C37.3421 111.406 29.2964 95.0902 45.5543 100.974L50.8913 104.768C52.1424 105.523 52.6445 103.197 52.2457 101.857C51.6976 100.01 49.887 97.0424 46.8656 93.3877C46.8656 93.3877 43.5572 90.1466 45.9015 89.0617C48.2458 87.9742 73.6915 76.8302 67.8523 59.6229L82.1992 70.3829C82.1992 70.3829 86.8562 43.8952 59.3044 47.1874L59.3015 47.1847Z" fill="black"/>
<path d="M66.6873 190.638C66.6873 190.638 26.6537 203.683 6.63687 179.706C6.63687 179.706 20.1545 174.505 44.7394 178.737C44.7394 178.737 62.8251 184.201 66.6873 190.638Z" fill="black"/>
<path d="M129.116 200.042C129.116 200.042 133.848 183.541 148.72 183.68C148.72 183.68 158.06 185.442 151.208 191.264C151.208 191.264 141.842 192.169 142.921 194.959C144 197.749 152.453 198.917 157.139 195.56C157.139 195.56 159.337 194.765 160.921 193.229C163.492 190.732 166.387 189.499 170.619 191.862C170.619 191.862 175.104 197.633 170.163 200.042C170.163 200.042 172.43 204.174 167.821 208.189C167.821 208.189 165.741 214.779 159.078 214.854C159.078 214.854 163.216 217.281 160.106 218.973C156.995 220.667 146.539 220.821 140.907 221.546C135.274 222.271 125.105 225.104 125.105 225.104C125.105 225.104 94.1041 231.739 77.2264 230.684C64.5667 229.894 53.1265 230.743 41.1612 222.904C37.1727 220.292 32.5243 217.741 28.5589 212.472C28.5589 212.472 18.4615 196.051 16.6107 182.794L16.0512 170.845C16.0512 170.845 34.6218 159.204 58.1508 181.422C58.1508 181.422 62.386 192.861 67.921 197.16C68.7646 197.816 69.832 198.149 70.7789 198.85C82.3913 207.451 129.111 200.036 129.111 200.036L129.116 200.042Z" fill="white"/>
<path d="M145.719 205.174C153.962 207.204 167.093 202.601 170.283 200.238C177.141 195.157 168.005 187.784 162.958 191.591C159.896 193.903 154.011 200.157 144.433 196.914C140.786 195.678 144.881 191.648 148.841 191.774C154.292 191.951 156.252 183.788 147.899 183.842C134.135 183.93 129.237 200.238 129.237 200.238C129.237 200.238 82.6095 207.652 68.4807 197.649C54.6876 187.886 57.3504 159.926 33.2964 154.086C16.1805 149.932 11.6899 173.823 20.3583 196.535C28.823 218.721 50.6303 245.789 132.938 223.047C142.666 220.359 157.377 220.882 160.229 219.172C163.081 217.464 159.202 215.053 159.202 215.053" stroke="#231F20" stroke-miterlimit="10"/>
<path d="M170.283 200.24C170.283 200.24 172.249 204.513 168.005 207.655C163.758 210.796 147.896 210.802 147.896 210.802" stroke="#231F20" stroke-miterlimit="10"/>
<path d="M168.005 207.655C168.005 207.655 168.137 213.101 161.38 214.575C154.622 216.052 148.838 214.577 148.838 214.577" stroke="#231F20" stroke-miterlimit="10"/>
<path d="M66.3745 190.104C66.3745 190.104 42.4754 168.334 6.63397 179.706C6.63397 179.706 15.5233 138.672 35.1987 135.711C58.7821 132.161 67.2181 169.784 66.3745 190.104Z" fill="#E5E6E8"/>
<path d="M56.2341 146.881C64.9915 159.666 66.6873 190.283 66.6873 190.283C66.6873 190.283 46.9058 169.126 6.63687 179.706" stroke="black" stroke-miterlimit="10"/>
<path d="M67.8924 93.2479C68.9747 93.2479 69.8522 92.4268 69.8522 91.4139C69.8522 90.401 68.9747 89.5798 67.8924 89.5798C66.81 89.5798 65.9326 90.401 65.9326 91.4139C65.9326 92.4268 66.81 93.2479 67.8924 93.2479Z" fill="#231F20"/>
<path d="M82.4287 81.4086C83.5111 81.4086 84.3885 80.5874 84.3885 79.5745C84.3885 78.5616 83.5111 77.7405 82.4287 77.7405C81.3464 77.7405 80.4689 78.5616 80.4689 79.5745C80.4689 80.5874 81.3464 81.4086 82.4287 81.4086Z" fill="#231F20"/>
<path d="M70.4088 108.825C70.4088 108.825 70.9971 116.605 79.3929 111.758" stroke="#231F20" stroke-miterlimit="10"/>
<path d="M63.4305 86.1348C63.4305 86.1348 56.1451 86.6772 59.1063 94.1665" stroke="#231F20" stroke-miterlimit="10"/>
<path d="M85.3526 97.3809L88.2191 89.7761C82.2565 87.926 76.8362 83.1784 74.2911 80.6864C73.0458 79.4673 72.6556 77.6762 73.3184 76.108C74.1103 74.239 76.0041 72.4211 80.5377 73.7584" stroke="#231F20" stroke-miterlimit="10"/>
<path d="M39.1814 102.104C39.1814 102.104 37.1097 110.88 47.0951 108.828" stroke="#231F20" stroke-miterlimit="10"/>
<path d="M136.548 75.0127C140.45 72.698 143.443 70.6813 145.526 68.9654C147.607 67.2468 148.769 65.7296 149.004 64.4138C149.159 63.5546 148.998 62.851 148.519 62.3059C148.04 61.7608 147.328 61.4144 146.381 61.264C144.599 60.982 142.654 61.2157 140.539 61.9595L139.509 55.6168C141.225 55.1147 142.884 54.7951 144.49 54.6609C146.094 54.5266 147.744 54.5938 149.44 54.8623C151.451 55.1791 153.144 55.8263 154.519 56.8037C155.893 57.7812 156.869 58.9708 157.443 60.3752C158.017 61.7796 158.157 63.3021 157.862 64.9402C157.42 67.3865 156.134 69.5266 154.002 71.3607C151.87 73.1947 148.866 74.7871 144.987 76.1378L155.371 77.7758L154.309 83.662L135.524 80.6974L136.548 75.0127Z" fill="#F480FF"/>
<path d="M164.728 74.5239L160.361 63.8418L169.451 65.2757L171.006 70.4154L174.364 66.0518L183.195 67.4455L175.414 76.2129L179.988 87.7167L171.156 86.323L169.156 80.7L165.382 85.4127L156.292 83.9788L164.731 74.5292L164.728 74.5239Z" fill="#F480FF"/>
<path d="M190.444 133.289L182.289 130.491L185.48 122.341L176.972 119.422L179.83 112.121L188.338 115.04L191.528 106.89L199.683 109.688L196.492 117.838L205 120.757L202.142 128.058L193.634 125.139L190.444 133.289Z" fill="#F480FF"/>
<path d="M130.875 142.873L129.28 136.683C130.459 136.468 131.524 136.202 132.471 135.886C134.164 135.316 135.271 134.409 135.796 133.157C136.321 131.906 136.092 129.962 135.113 127.319C134.651 130.504 132.769 132.65 129.472 133.759C126.689 134.693 124.164 134.503 121.897 133.189C119.627 131.876 117.874 129.594 116.629 126.347L112.772 116.28L121.808 113.249L126.144 124.562C126.494 125.475 127.056 126.141 127.834 126.562C128.611 126.984 129.472 127.035 130.419 126.718C131.395 126.39 132.04 125.735 132.359 124.75C132.677 123.764 132.594 122.642 132.112 121.38L128.178 111.111L137.257 108.063L143.027 123.122C144.818 127.792 145.062 131.726 143.759 134.919C142.456 138.112 139.727 140.408 135.57 141.804C133.991 142.333 132.428 142.69 130.881 142.878L130.875 142.873Z" fill="#F480FF"/>
<path d="M10.0569 42.3819L13.6974 56.0259L93.9045 37.2832L90.264 23.6392L10.0569 42.3819Z" fill="#F480FF"/>
<path d="M12.6289 29.1671L15.8001 41.0525L79.3204 26.2091L76.1492 14.3237L12.6289 29.1671Z" fill="#E5E6E8"/>
<path d="M36.5926 -0.000231128L35.6726 12.2197L100.981 16.5257L101.901 4.30576L36.5926 -0.000231128Z" fill="#FDC506"/>
<path d="M81.2349 25.7476L84.968 39.3673" stroke="white" stroke-miterlimit="10"/>
<path d="M73.0084 27.6677L76.7415 41.2902" stroke="white" stroke-miterlimit="10"/>
<path d="M67.3557 16.376L70.5092 28.2664" stroke="black" stroke-miterlimit="10"/>
<path d="M95.6192 3.88916L94.7727 16.1153" stroke="black" stroke-miterlimit="10"/>
<path d="M87.4558 3.35205L86.6093 15.5782" stroke="black" stroke-miterlimit="10"/>
<path d="M59.4105 18.2341L62.5639 30.1246" stroke="black" stroke-miterlimit="10"/>
<path d="M20.4643 27.3372L23.6149 39.2276" stroke="black" stroke-miterlimit="10"/>
</svg>
