<svg width="563" height="556" viewBox="0 0 563 556" fill="none" xmlns="http://www.w3.org/2000/svg">
<path d="M448.098 377.335C448.098 377.335 406.352 401.715 393.821 464.231C393.821 464.231 446.135 433.21 448.098 377.335Z" fill="black"/>
<path d="M378.36 284.164C378.36 284.164 368.932 280.016 374.871 255.672C380.81 231.328 393.426 216.727 399.115 221.899C404.796 227.072 479.727 261.582 479.727 261.582L550.969 267.45C562.167 287.975 557.481 299.768 557.481 299.768L378.367 284.157L378.36 284.164Z" fill="white" stroke="#231F20" stroke-miterlimit="10"/>
<path d="M455.635 293.757C468.093 297.167 535.13 334.5 535.13 334.5C535.13 334.5 560.011 325.652 561.63 301.229L394.495 242.726C394.495 242.726 391.6 274.37 378.354 284.157C378.354 284.157 443.169 290.347 455.635 293.75V293.757Z" fill="white" stroke="#231F20" stroke-miterlimit="10"/>
<path d="M399.895 222.501C399.895 222.501 401.643 228.927 399.365 244.431" stroke="#231F20" stroke-miterlimit="10"/>
<path d="M455.454 294.588C455.454 294.588 467.368 277.952 467.798 256.051L484.778 261.998C484.778 261.998 485.186 283.77 470.8 301.895L455.454 294.588Z" fill="#FFC600" stroke="black" stroke-miterlimit="10"/>
<path d="M386.24 273.389C386.24 273.389 377.479 274.893 377.765 262.513C378.159 245.634 386.935 233.892 386.935 233.892C386.935 233.892 389.078 239.588 399.702 241.938" stroke="#231F20" stroke-miterlimit="10"/>
<path d="M439.929 381.433L448.117 387.552C448.117 387.552 451.47 335.367 450.546 332.587C449.615 329.808 430.486 305.42 430.486 305.42C430.486 305.42 415.033 286.944 416.329 284.608C417.626 282.273 423.272 266.776 432.191 263.237C432.191 263.237 440.165 257.67 440.76 263.237C441.347 268.804 439.234 282.917 439.728 284.164C440.222 285.41 441.562 287.474 446.641 287.574C451.721 287.674 472.204 285.948 475.994 297.06C479.783 308.171 479.826 305.485 479.826 305.485L495.129 314.87C495.129 314.87 508.541 348.392 513.635 366.403C518.736 384.414 528.68 422.807 528.364 450.404C528.049 478.001 518.005 497.115 501.054 502.445C481.768 508.506 454.271 496.456 436.053 484.993C417.834 473.53 395.388 456.465 395.388 456.465C395.388 456.465 398.892 416.567 439.929 381.433Z" fill="white"/>
<path d="M494.351 312.377C494.351 312.377 573.366 498.519 491.786 504.215C439.3 507.876 348.629 411.681 347.576 416.696C347.576 416.696 306.159 361.259 334.881 329.177C363.603 297.095 448.127 387.559 448.127 387.559" stroke="black" stroke-miterlimit="10"/>
<path d="M281.706 307.727C281.706 307.727 334.887 299.109 392.974 335.145C451.034 371.167 448.096 377.335 448.096 377.335C448.096 377.335 402.496 400.834 393.82 464.231L323.76 424.555C323.76 424.555 261.238 360.421 281.706 307.727Z" fill="#E6E7E8"/>
<path d="M448.098 377.335C448.098 377.335 405.019 400.77 393.821 464.231" stroke="black" stroke-miterlimit="10"/>
<path d="M454.6 231.694L447.28 264.795C446.922 266.414 447.944 268.016 449.563 268.374L458.384 270.325C460.003 270.683 461.605 269.661 461.963 268.042L469.283 234.941C469.641 233.322 468.619 231.72 467.001 231.362L458.179 229.411C456.561 229.053 454.958 230.075 454.6 231.694Z" fill="white" stroke="black" stroke-miterlimit="10"/>
<path d="M468.602 242.42L462.132 271.674C461.774 273.293 462.796 274.895 464.415 275.253L473.236 277.204C474.855 277.562 476.457 276.54 476.815 274.921L483.285 245.667C483.643 244.048 482.621 242.446 481.002 242.088L472.181 240.137C470.562 239.779 468.959 240.801 468.602 242.42Z" fill="white" stroke="black" stroke-miterlimit="10"/>
<path d="M483.278 245.666L476.809 274.92C476.451 276.539 477.473 278.142 479.092 278.5L487.913 280.45C489.531 280.808 491.134 279.786 491.492 278.167L497.961 248.913C498.319 247.295 497.297 245.692 495.679 245.334L486.857 243.383C485.239 243.025 483.636 244.047 483.278 245.666Z" fill="white" stroke="black" stroke-miterlimit="10"/>
<path d="M498.898 244.649L492.428 273.903C492.07 275.522 493.093 277.124 494.711 277.482L503.532 279.433C505.151 279.791 506.754 278.769 507.112 277.15L513.581 247.896C513.939 246.277 512.917 244.675 511.298 244.317L502.477 242.366C500.858 242.008 499.256 243.03 498.898 244.649Z" fill="white" stroke="black" stroke-miterlimit="10"/>
<path d="M475.314 323.002C480.659 314.326 482.88 302.92 472.721 292.381C462.562 281.85 438.368 292.088 439.708 281.986C441.04 271.877 443.713 259.426 437.036 260.314C430.358 261.203 413.888 278.841 417.9 287.295C420.844 293.506 437.795 313.874 446.593 324.263C449.96 328.239 451.586 333.375 451.106 338.57C448.391 368.144 440.654 468.924 460.62 474.239" stroke="black" stroke-miterlimit="10"/>
<path d="M337.847 200.994C328.255 192.533 322.817 166.992 322.817 166.992C313.36 181.371 300.278 175.21 300.278 175.21C300.278 175.21 241.56 223.69 238.493 231.664C236.96 235.647 229.918 248.056 225.977 262.399C222.044 248.056 214.994 235.647 213.461 231.664C210.395 223.69 150.609 175.052 150.609 175.052C150.609 175.052 141.274 182.066 129.926 168.031C129.926 168.031 123.693 192.54 114.1 201.001C104.507 209.462 74.0873 245.778 105.137 264.785C105.137 264.785 97.0918 293.492 110.725 304.783C123.191 315.106 151.519 316.912 162.559 296.064C162.559 296.064 197.893 328.224 219.787 304.783C222.56 301.809 224.573 298.543 225.977 295.089C227.381 298.543 229.395 301.809 232.167 304.783C254.061 328.224 289.395 296.064 289.395 296.064C300.436 316.919 328.04 314.168 341.229 304.783C354.082 295.641 346.817 264.785 346.817 264.785C377.86 245.771 347.44 209.455 337.855 201.001L337.847 200.994Z" fill="black"/>
<path d="M306.874 133.169C294.373 135.985 292.051 150.93 292.03 151.044C291.106 149.139 290.124 147.276 289.064 145.471C289.064 145.471 264.533 104.584 247.361 104.992C230.188 105.401 185.619 93.5439 165.989 136.479L154.87 164.263C154.87 164.263 154.44 165.409 153.788 167.443L159.591 147.448C159.591 147.448 153.702 131.543 142.726 132.632C142.726 132.632 123.275 136.2 122.759 151.066C122.243 165.925 135.383 181.442 151.352 175.833C145.556 198.071 140.025 240.175 174.765 263.194C174.765 263.194 193.872 272.465 201 273.718L196.68 303.823C196.68 303.823 215.53 328.769 237.99 321.762C237.99 321.762 254.768 317.779 263.122 300.527L258.759 271.677C258.759 271.677 306.975 257.104 305.176 209.261C305.176 209.261 304.768 193.629 300.491 175.618C320.809 180.719 329.549 161.318 329.399 152.757C329.255 144.195 319.426 130.34 306.874 133.169Z" fill="white"/>
<path d="M201.001 273.718L196.688 307.727" stroke="black" stroke-miterlimit="10"/>
<path d="M258.768 271.677L264.442 305.893" stroke="black" stroke-miterlimit="10"/>
<path d="M263.131 300.527L280.046 303.644C337.224 314.175 378.726 364.017 378.726 422.155V553.247H87.9282V423.76C87.9282 361.753 122.768 305.492 196.689 303.83C196.689 303.83 233.485 348.127 263.131 300.534V300.527Z" fill="#E6E7E8"/>
<path d="M192.439 505.311L232.495 353.951L363.558 363.15C363.558 363.15 307.14 476.288 307.132 491.577V506.858L192.439 505.311Z" fill="#43305E"/>
<path d="M192.77 383.024H290.641L268.152 514.94H184.946C184.946 514.94 193.859 391.033 192.77 383.024Z" fill="#FFC600"/>
<path d="M60.2954 466.975L50.8672 461.745C50.8672 461.745 59.4787 454.803 90.3496 454.194C90.3496 454.194 123.47 453.119 142.728 461.759L129.681 466.982C129.681 466.982 80.5273 472.205 60.2882 466.982L60.2954 466.975Z" fill="black"/>
<path d="M266.01 93.0638H185.942C185.942 93.0638 127.489 193.65 153.395 240.261C170.897 271.755 205.407 276.362 225.976 276.047C246.538 276.362 281.055 271.755 298.557 240.261C324.463 193.65 266.01 93.0638 266.01 93.0638Z" stroke="black" stroke-miterlimit="10"/>
<path d="M292.031 149.275C292.031 149.275 298.092 123.519 319.148 135.992C345.355 151.51 314.771 185.906 300.22 175.432" stroke="black" stroke-miterlimit="10"/>
<path d="M319.148 147.648C319.148 147.648 305.859 138.858 299.726 156.647" stroke="black" stroke-miterlimit="10"/>
<path d="M160.13 149.275C160.13 149.275 154.069 123.519 133.013 135.992C106.806 151.51 137.39 185.906 151.941 175.432" stroke="black" stroke-miterlimit="10"/>
<path d="M133.013 147.648C133.013 147.648 146.303 138.858 152.436 156.647" stroke="black" stroke-miterlimit="10"/>
<path d="M130.433 458.199L126.758 499.558L246.237 500.625C246.237 500.625 263.001 479.785 274.657 478.101C274.657 478.101 303.486 466.853 307.57 480.386C310.192 489.055 306.581 489.994 300.413 490.775C294.245 491.556 279.049 493.125 278.655 498.354C278.361 502.259 277.939 504.895 281.707 505.905C285.468 506.916 293.786 506.486 298.522 505.669C303.264 504.852 326.985 499.923 326.985 499.923C326.985 499.923 342.99 498.412 342.718 504.064C342.446 509.717 338.606 513.865 338.606 513.865C338.606 513.865 353.636 513.629 353.343 521.896C353.343 521.896 353.73 530.479 338.806 531.138C338.806 531.138 339.752 532.356 340.053 535.258C340.354 538.159 338.964 543.325 334.615 542.895C330.267 542.458 324.127 543.891 324.127 543.891C324.127 543.891 331.398 547.215 331.578 549.178C331.764 551.141 330.159 553.655 327.336 554.085C324.514 554.508 274.55 554.085 274.55 554.085H71.8724C71.8724 554.085 57.6871 553.548 55.416 523.766L61.3122 459.882C61.3122 459.882 78.9292 448.169 130.433 458.199Z" fill="white"/>
<path d="M336.901 514.094C336.901 514.094 350.405 514.066 352.39 517.161C355.27 521.645 352.025 528.408 346.924 529.634C341.823 530.859 288.055 531.883 288.055 531.883" stroke="black" stroke-miterlimit="10"/>
<path d="M338.326 530.357C338.326 530.357 343.048 536.984 338.549 541.483C334.049 545.982 286.894 542.759 286.894 542.759" stroke="black" stroke-miterlimit="10"/>
<path d="M324.128 543.905C324.128 543.905 335.275 546.978 330.977 551.915C326.685 556.851 258.589 553.247 258.589 553.247C258.589 553.247 96.4038 555.246 71.9736 553.247C50.6885 551.506 56.0044 506.393 56.0044 506.393C56.0044 506.393 58.4546 465.227 71.9736 398.785C71.9736 398.785 108.748 363.007 135.736 398.785L126.866 498.713L246.345 499.78C246.345 499.78 264.026 478.423 282.74 474.841C289.531 473.537 304.003 472.391 307.678 479.541C309.67 483.41 309.312 492.831 293.436 492.415C283.062 492.143 280.082 495.646 278.771 497.516C276.607 500.604 278.548 505.633 281.715 505.92C303.738 507.919 343.242 489.9 343.256 505.712C343.271 524.024 281.715 519.002 281.715 519.002" stroke="black" stroke-miterlimit="10"/>
<path d="M160.122 313.337L142.727 460.921C92.0688 444.981 50.4873 460.921 50.4873 460.921L55.4235 426.876C68.5914 321.862 160.129 313.337 160.129 313.337H160.122Z" fill="#E6E7E8"/>
<path d="M142.727 460.928C142.727 460.928 96.4892 444.823 50.4873 460.928" stroke="black" stroke-miterlimit="10"/>
<path d="M142.728 498.147C142.728 498.147 134.725 439.299 122.761 418.38C110.796 397.46 87.9209 364.755 87.9209 364.755L242.863 350.032C242.863 350.032 253.48 420.93 253.086 456.644C252.692 492.351 246.337 499.078 246.337 499.078L142.721 498.147H142.728Z" fill="#F480FF"/>
<path d="M135.112 391.034C135.527 393.362 136.308 395.612 137.462 397.682C138.307 399.201 139.453 400.87 141.273 401.243C144.626 401.931 146.403 397.976 146.919 395.332C147.434 392.689 147.671 386.957 151.676 387.287C153.488 387.437 154.642 389.178 155.372 390.654C156.16 392.245 156.504 393.993 157.264 395.59C158.568 398.348 161.62 401.386 164.679 398.893C166.284 397.582 167.079 395.404 167.967 393.613C168.512 392.524 169.049 391.428 169.594 390.339C169.902 389.716 170.217 389.092 170.525 388.469C170.804 387.903 171.127 386.678 172.008 386.85C172.466 386.943 173.061 387.487 173.434 387.753C174.014 388.168 174.587 388.591 175.146 389.035C176.07 389.766 176.966 390.539 177.825 391.342C178.685 392.144 179.452 392.982 180.261 393.799C180.92 394.465 181.694 395.074 182.675 395.117C184.431 395.203 185.785 393.62 186.458 392.173C186.845 391.342 187.06 390.446 187.361 389.579C187.519 389.128 187.683 388.677 187.905 388.247C188.099 387.881 188.471 387.108 188.901 386.957C189.589 386.721 190.563 387.846 190.907 388.29C191.402 388.927 191.788 389.644 192.218 390.325C193.092 391.7 194.174 393.083 195.901 393.319C197.785 393.584 199.676 392.51 200.78 391.034C202.248 389.064 202.47 386.47 202.671 384.106L201.998 384.493C205.164 386.864 208.331 389.236 211.49 391.607C211.691 391.757 211.977 391.628 212.106 391.449C213.854 388.87 215.603 386.284 217.351 383.705L216.649 383.798C219.493 386.27 224.164 385.947 226.571 383.01C226.936 382.566 226.306 381.928 225.941 382.379C223.856 384.915 219.786 385.338 217.286 383.167C217.057 382.967 216.749 383.01 216.584 383.261C214.836 385.84 213.088 388.426 211.34 391.005L211.956 390.848C208.789 388.476 205.623 386.105 202.463 383.733C202.162 383.511 201.811 383.819 201.79 384.12C201.604 386.334 201.417 388.842 199.977 390.647C198.795 392.13 196.524 393.133 194.79 391.958C192.62 390.489 192.225 386.864 189.467 386.141C188.758 385.954 188.421 386.126 187.92 386.678C187.347 387.301 186.981 388.068 186.68 388.849C185.985 390.668 185.656 393.097 183.671 394.021C182.453 394.587 181.515 393.806 180.705 392.961C179.896 392.116 179.093 391.277 178.234 390.489C176.643 389.028 174.931 387.595 173.111 386.427C172.531 386.055 171.829 385.704 171.141 386.026C170.31 386.413 169.988 387.573 169.615 388.326C168.533 390.511 167.444 392.696 166.362 394.874C165.531 396.543 164.457 398.857 162.293 398.922C160.466 398.972 159.177 397.245 158.389 395.805C156.855 392.982 156.648 389.314 153.904 387.244C152.815 386.42 151.411 386.14 150.107 386.606C148.803 387.072 147.893 388.268 147.341 389.529C145.937 392.739 146.696 397.174 143.845 399.674C141.918 401.365 139.826 399.774 138.715 397.99C137.34 395.798 136.459 393.326 136 390.783C135.9 390.217 135.033 390.453 135.133 391.019L135.112 391.034Z" fill="white"/>
<path d="M140.305 412.691C140.721 415.02 141.502 417.269 142.655 419.34C143.5 420.859 144.647 422.528 146.466 422.901C149.819 423.588 151.596 419.634 152.112 416.99C152.628 414.346 152.864 408.615 156.869 408.945C158.682 409.095 159.835 410.836 160.566 412.312C161.354 413.902 161.698 415.65 162.457 417.248C163.761 420.006 166.813 423.044 169.872 420.551C171.477 419.24 172.272 417.062 173.161 415.27C173.705 414.182 174.242 413.085 174.787 411.997C175.095 411.373 175.41 410.75 175.718 410.127C175.998 409.561 176.32 408.335 177.201 408.507C177.66 408.601 178.254 409.145 178.627 409.41C179.207 409.826 179.78 410.248 180.339 410.693C181.263 411.423 182.159 412.197 183.019 412.999C183.878 413.802 184.645 414.64 185.454 415.457C186.114 416.123 186.887 416.732 187.869 416.775C189.624 416.861 190.978 415.278 191.652 413.83C192.038 412.999 192.253 412.104 192.554 411.237C192.712 410.786 192.877 410.334 193.099 409.904C193.292 409.539 193.665 408.765 194.095 408.615C194.782 408.379 195.757 409.503 196.101 409.947C196.595 410.585 196.982 411.302 197.412 411.982C198.286 413.358 199.368 414.74 201.094 414.977C202.978 415.242 204.87 414.167 205.973 412.691C207.442 410.721 207.664 408.128 207.864 405.764L207.191 406.15C210.358 408.522 213.524 410.893 216.684 413.265C216.884 413.415 217.171 413.286 217.3 413.107C219.048 410.528 220.796 407.942 222.544 405.362L221.842 405.455C224.686 407.927 229.357 407.605 231.764 404.667C232.13 404.223 231.499 403.586 231.134 404.037C229.049 406.573 224.98 406.996 222.479 404.825C222.25 404.624 221.942 404.667 221.777 404.918C220.029 407.497 218.281 410.084 216.533 412.663L217.149 412.505C213.983 410.134 210.816 407.762 207.657 405.391C207.356 405.169 207.005 405.477 206.983 405.778C206.797 407.992 206.611 410.499 205.171 412.305C203.988 413.788 201.717 414.791 199.984 413.616C197.813 412.147 197.419 408.522 194.661 407.798C193.951 407.612 193.615 407.784 193.113 408.335C192.54 408.959 192.175 409.725 191.874 410.506C191.179 412.326 190.849 414.755 188.865 415.679C187.647 416.245 186.708 415.464 185.899 414.619C185.089 413.773 184.287 412.935 183.427 412.147C181.837 410.685 180.124 409.253 178.305 408.085C177.724 407.712 177.022 407.361 176.334 407.684C175.503 408.07 175.181 409.231 174.808 409.983C173.727 412.168 172.638 414.353 171.556 416.531C170.725 418.201 169.65 420.515 167.486 420.579C165.66 420.629 164.37 418.903 163.582 417.463C162.049 414.64 161.841 410.972 159.097 408.902C158.008 408.078 156.604 407.798 155.3 408.264C153.996 408.73 153.086 409.926 152.535 411.187C151.13 414.396 151.89 418.831 149.038 421.332C147.111 423.022 145.019 421.432 143.909 419.648C142.533 417.456 141.652 414.984 141.194 412.441C141.093 411.875 140.226 412.111 140.327 412.677L140.305 412.691Z" fill="white"/>
<path d="M146.654 438.748C147.07 441.076 147.851 443.326 149.004 445.396C149.85 446.915 150.996 448.584 152.816 448.957C156.168 449.645 157.945 445.69 158.461 443.046C158.977 440.403 159.213 434.671 163.218 435.001C165.031 435.151 166.184 436.892 166.915 438.368C167.703 439.958 168.047 441.707 168.806 443.304C170.11 446.062 173.162 449.1 176.221 446.607C177.826 445.296 178.621 443.118 179.51 441.327C180.054 440.238 180.592 439.142 181.136 438.053C181.444 437.429 181.759 436.806 182.067 436.183C182.347 435.617 182.669 434.392 183.55 434.564C184.009 434.657 184.603 435.201 184.976 435.467C185.556 435.882 186.129 436.305 186.688 436.749C187.612 437.48 188.508 438.253 189.368 439.056C190.227 439.858 190.994 440.696 191.804 441.513C192.463 442.179 193.236 442.788 194.218 442.831C195.973 442.917 197.327 441.334 198.001 439.887C198.388 439.056 198.602 438.16 198.903 437.293C199.061 436.842 199.226 436.391 199.448 435.961C199.641 435.595 200.014 434.822 200.444 434.671C201.131 434.435 202.106 435.56 202.45 436.004C202.944 436.641 203.331 437.358 203.761 438.038C204.635 439.414 205.717 440.797 207.443 441.033C209.327 441.298 211.219 440.223 212.322 438.748C213.791 436.777 214.013 434.184 214.213 431.82L213.54 432.207C216.707 434.578 219.873 436.949 223.033 439.321C223.233 439.471 223.52 439.342 223.649 439.163C225.397 436.584 227.145 433.998 228.893 431.419L228.191 431.512C231.035 433.984 235.706 433.661 238.114 430.724C238.479 430.279 237.848 429.642 237.483 430.093C235.398 432.629 231.329 433.052 228.829 430.881C228.599 430.681 228.291 430.724 228.127 430.975C226.378 433.554 224.63 436.14 222.882 438.719L223.498 438.561C220.332 436.19 217.165 433.819 214.006 431.447C213.705 431.225 213.354 431.533 213.332 431.834C213.146 434.048 212.96 436.556 211.52 438.361C210.338 439.844 208.067 440.847 206.333 439.672C204.162 438.203 203.768 434.578 201.01 433.855C200.3 433.668 199.964 433.84 199.462 434.392C198.889 435.015 198.524 435.782 198.223 436.563C197.528 438.382 197.198 440.811 195.214 441.735C193.996 442.301 193.057 441.52 192.248 440.675C191.438 439.83 190.636 438.991 189.776 438.203C188.186 436.742 186.473 435.309 184.654 434.141C184.073 433.769 183.371 433.417 182.683 433.74C181.852 434.127 181.53 435.287 181.157 436.04C180.076 438.225 178.987 440.41 177.905 442.588C177.074 444.257 175.999 446.571 173.836 446.636C172.009 446.686 170.719 444.959 169.931 443.519C168.398 440.696 168.19 437.028 165.446 434.958C164.357 434.134 162.953 433.854 161.649 434.32C160.345 434.786 159.435 435.982 158.884 437.243C157.48 440.453 158.239 444.887 155.388 447.388C153.46 449.079 151.368 447.488 150.258 445.704C148.882 443.512 148.001 441.04 147.543 438.497C147.442 437.931 146.575 438.167 146.676 438.733L146.654 438.748Z" fill="white"/>
<path d="M261.604 83.1198C246.272 77.8183 227.008 74.9096 214.098 79.3657C214.047 79.3657 214.019 79.3801 214.019 79.3801C214.019 79.3801 158.789 70.3172 142.734 117.465L135.548 134.645C135.548 134.645 153.251 124.042 160.136 149.275C160.136 149.275 190.298 137.511 207.728 121.8C219.535 134.165 256.324 167.35 293.299 145.471C293.299 145.471 298.493 131.185 309.44 132.582C319.155 133.821 292.331 93.7373 261.604 83.1198Z" fill="black"/>
<path d="M195.57 182.016C198.126 182.016 200.198 179.944 200.198 177.388C200.198 174.832 198.126 172.759 195.57 172.759C193.014 172.759 190.942 174.832 190.942 177.388C190.942 179.944 193.014 182.016 195.57 182.016Z" fill="#231F20"/>
<path d="M261.604 184.738C264.16 184.738 266.232 182.666 266.232 180.11C266.232 177.554 264.16 175.482 261.604 175.482C259.048 175.482 256.976 177.554 256.976 180.11C256.976 182.666 259.048 184.738 261.604 184.738Z" fill="#231F20"/>
<path d="M223.497 178.706L220.058 216.977H236.085" stroke="#231F20" stroke-miterlimit="10"/>
<path d="M202.699 166.992C202.699 166.992 191.68 158.56 183.004 169.242" stroke="#231F20" stroke-miterlimit="10"/>
<path d="M271.447 167.451C271.447 167.451 260.428 159.018 251.752 169.7" stroke="#231F20" stroke-miterlimit="10"/>
<path d="M255.177 235.669C240.555 256.366 220.058 242.346 220.058 242.346L255.177 235.669Z" fill="black"/>
<path d="M142.727 117.465H304.704L301.473 72.8104L360.435 50.3218L232.868 -9.15527e-05L105.301 50.3218L152.435 69.2856L142.727 117.465Z" fill="#FFC600"/>
<path d="M152.435 69.2856L228.075 96.3595L301.473 72.8104" stroke="black" stroke-miterlimit="10"/>
<path d="M209.598 34.933C209.598 34.933 74.1288 24.4587 69.5652 100.765C65.0087 177.072 54.7065 208.516 34.231 216.526" stroke="black" stroke-miterlimit="10"/>
<path d="M0 232.23C0 232.23 32.3324 205.973 39.2746 214.749C48.0723 225.861 24.0433 258.96 24.0433 258.96C24.0433 258.96 2.95884 246.917 0.00716035 232.23H0Z" fill="#F480FF"/>
</svg>
