<svg width="80" height="80" viewBox="0 0 80 80" fill="none" xmlns="http://www.w3.org/2000/svg">
<path d="M39.9998 0C24.024 0 11.0269 12.9972 11.0269 28.9728C11.0269 48.7991 36.9548 77.9052 38.0587 79.1345C39.0956 80.2894 40.9059 80.2874 41.9409 79.1345C43.0448 77.9052 68.9728 48.7991 68.9728 28.9728C68.9725 12.9972 55.9754 0 39.9998 0ZM39.9998 43.5498C31.962 43.5498 25.4229 37.0106 25.4229 28.9728C25.4229 20.935 31.9622 14.3959 39.9998 14.3959C48.0375 14.3959 54.5765 20.9352 54.5765 28.973C54.5765 37.0108 48.0375 43.5498 39.9998 43.5498Z" fill="black"/>
</svg>
