<svg width="198" height="198" viewBox="0 0 198 198" fill="none" xmlns="http://www.w3.org/2000/svg">
<mask id="mask0_277_1069" style="mask-type:alpha" maskUnits="userSpaceOnUse" x="0" y="0" width="198" height="198">
<circle cx="99" cy="99" r="99" fill="#C4C4C4"/>
</mask>
<g mask="url(#mask0_277_1069)">
<path fill-rule="evenodd" clip-rule="evenodd" d="M115.282 228.994C101.352 229.033 93.0082 228.87 77.2519 228.642C59.015 228.159 54.1002 229.028 43.8837 227.021C42.3216 226.688 41.1332 226.185 39.9279 225.484C39.4958 225.973 38.7634 226.7 38.0678 226.219C36.7866 225.371 37.374 222.412 37.0563 220.742C36.5303 206.028 35.6891 190.875 38.5649 176.339C36.8214 175.772 26.6052 171.568 26.0474 170.159C35.286 145.992 55.5526 117.713 82.2173 118.778C82.7536 119.439 83.2306 120.418 83.8261 121.092C87.4507 119.733 92.4833 118.372 92.7319 113.144C93.36 109.654 93.8118 106.396 94.114 103.189C94.1693 102.822 94.6088 102.696 94.8786 102.54C94.9939 101.71 95.2572 100.863 95.83 100.294C100.503 99.8742 111.17 101.802 113.97 102.597C117.789 103.251 117.391 107.351 118.103 110.459C119.231 114.301 120.016 118.289 121.692 122.042C122.071 122.094 123.133 122.28 123.525 122.348C123.545 121.923 123.345 120.66 123.735 120.403C124.458 119.676 124.624 121.058 124.785 121.509C140.565 118.528 150.885 131.924 154.343 146.888C156.847 154.413 160.166 162.029 164.498 170.197C167.215 175.268 159.41 176.21 156.138 178.234C159.514 191.375 159.921 204.758 160.475 218.004C160.621 220.04 160.819 222.811 160.098 223.825C159.756 224.091 159.518 224.083 159.171 224.103C158.501 224.826 157.353 224.778 156.386 224.985C153.329 225.54 150.196 225.912 147.253 225.968C138.992 231.082 126.257 228.222 115.282 228.994Z" fill="#D08B5B"/>
<path d="M142.086 139.56H66.9014V189.016H142.086V139.56Z" fill="white"/>
<path fill-rule="evenodd" clip-rule="evenodd" d="M92.9641 103.179C93.398 101.006 96.9836 101.51 96.8202 103.701C95.01 111.858 96.1125 121.787 84.6717 120.984C91.9339 133.763 114.36 141.536 121.609 124.758C118.037 124.332 117.33 115.885 116.899 112.929L116.881 112.665C116.785 111.145 116.817 109.736 117.731 108.436C118.642 109.119 119.009 110.355 119.318 111.482L119.543 112.386C120.299 115.394 121.09 118.389 122.288 121.262L122.331 121.268C122.271 119.32 124.77 118.43 125.39 120.516C142.301 118.187 151.552 132.147 155.202 146.749C157.864 154.741 161.334 162.43 165.277 169.863C168.252 175.671 161.027 177 157.205 178.932C160.145 190.712 160.722 202.916 161.266 214.999C161.086 217.578 162.251 222.867 160.695 224.716C158.39 226.52 157.148 223.428 157.503 221.445C157.834 207.426 156.374 193.468 155.956 179.47C153.07 180.689 150.149 181.813 147.196 182.856C147.346 195.992 148.908 209.127 149.465 222.195C150.195 222.771 150.599 223.769 149.975 224.639C146.634 229.301 140.594 229.997 135.279 230.063C122.631 230.222 109.97 230.173 97.3207 230.136C84.896 229.854 72.3629 230.65 60.0037 229.226C57.5817 231.045 57.0863 227.122 57.4107 225.449L57.5339 222.097C57.6168 219.863 57.7046 217.628 57.8176 215.395L58.0992 209.95C58.5707 200.876 59.0704 191.806 59.8632 182.75C52.6839 181.768 45.6077 180.025 38.7571 177.673C39.3211 193.394 38.1642 209.285 40.0931 224.928C41.366 226.655 38.8133 228.278 37.3231 227.195C35.4751 225.786 36.2676 223.028 35.8986 220.998L35.8512 219.686C35.334 205.537 34.6273 191.091 37.2636 177.136L36.1296 176.696C32.6729 175.346 23.7833 171.736 24.9491 169.954C34.2295 145.628 54.9897 116.53 82.4849 117.913C83.1816 118.397 83.5375 119.339 84.0534 120.014L84.8716 119.717C88.0396 118.558 91.4797 117.086 91.5739 113.186C92.1736 109.862 92.6489 106.537 92.9641 103.179ZM138.276 163.815C142.214 158.304 114.897 167.013 112.955 167.589L112.224 167.855C100.259 172.206 87.3611 176.414 77.8206 185.087C77.6201 185.307 77.8697 185.61 78.1291 185.486L78.1623 185.467C78.5419 185.256 80.1852 184.669 79.021 184.891C92.8057 176.195 108.821 171.418 124.47 167.239C126.743 166.689 129.029 166.184 131.322 165.723C133.636 165.161 136.247 165.167 138.276 163.815ZM95.1099 162.021C95.4463 160.647 97.7107 148.023 93.9505 151.486C92.9479 153.302 92.5636 155.408 92.3832 157.453C91.8981 159.838 93.1217 162.408 91.9314 164.607C90.8662 167.478 86.95 170.833 86.6884 165.498C93.0957 165.279 91.1717 157.158 86.8102 159.668C84.4215 161.713 84.0087 165.565 85.2039 168.386C83.2734 166.283 80.1423 166.276 77.9074 164.69C73.8712 160.325 80.6504 155.783 84.3419 154.211C84.5499 153.982 87.5756 152.927 86.9346 152.8C84.0364 152.826 81.1327 153.443 78.6319 154.968C73.4557 157.494 71.6941 165.315 77.6152 168.057C78.8955 168.673 80.2968 169.006 81.5644 169.643C84.7587 171.299 83.7268 173.381 80.4289 173.442C79.0725 173.738 74.5962 172.496 75.0975 174.874C75.9072 176.361 77.6704 176.583 79.2152 176.624C83.3441 176.907 88.4775 174.575 86.144 169.716C88.9609 172.116 92.4782 168.76 93.6848 166.152C95.1562 169.038 98.8531 168.169 100.94 166.462C104.129 168.973 108.129 166.181 109.549 163.064C109.578 163.712 109.607 164.361 109.638 165.01C109.702 166.339 111.763 166.766 112.067 165.338C112.53 163.168 113.169 161.021 114.047 158.981C116.068 153.618 117.303 156.037 117.374 160.239C117.623 161.817 118.412 163.231 120.156 163.338C120.642 163.367 121.276 162.935 121.352 162.427L121.452 161.755C121.665 160.346 121.911 158.897 122.442 157.573C122.954 161.953 128.688 161.932 130.287 158.3C133.604 160.292 137.084 157.51 138.631 154.633L138.677 154.546C139.217 153.562 137.844 152.371 137.059 153.297L136.786 153.58C135.306 155.114 132.95 157.336 131.004 155.443C131.069 154.589 131.043 153.718 130.99 152.878C130.927 151.876 129.545 150.985 128.76 151.881C127.652 150.94 126.277 151.075 125.119 151.732C122.118 152.58 120.228 155.502 119.577 158.406C119.508 156.085 118.749 153.568 116.201 153.35C113.59 153.328 112.591 156.247 111.7 158.212C111.648 157.332 111.599 156.453 111.554 155.572C111.477 154.057 109.377 154.074 109.205 155.527L109.2 155.573C108.87 158.715 107.13 166.241 102.74 164.768C104.591 162.728 107.94 156.512 104.757 154.576C99.8574 153.342 97.3443 161.073 99.4332 164.671L99.3252 164.747C98.1316 165.571 96.1589 166.488 95.4926 164.642L95.4171 164.471C95.075 163.691 94.7727 162.845 95.1099 162.021ZM88.1013 161.15C89.0292 160.608 89.3591 162.402 89.1226 163.004C88.7432 163.97 87.7081 164.508 86.677 164.876L86.6802 164.767C86.7257 163.663 87.0938 161.739 88.1013 161.15ZM103.716 156.672C103.737 156.801 103.703 156.96 103.698 157.079C103.54 159.194 102.6 161.224 101.291 162.874C100.538 160.632 101.509 157.67 103.716 156.672ZM126.018 154.028C126.619 153.87 127.256 153.913 127.876 154.082C127.831 154.786 127.984 155.491 128.291 156.138C126.691 160.944 122.931 157.244 126.018 154.028Z" fill="black"/>
<path fill-rule="evenodd" clip-rule="evenodd" d="M124.179 52.1047C112.913 42.9251 94.859 39.9445 82.799 49.2057C73.429 57.8971 69.5513 82.5948 71.2096 95.0057C71.6707 102.966 77.7371 111.989 86.6422 109.471C88.1542 109.322 89.6224 108.74 91.1483 108.619C92.974 108.408 94.8135 108.405 96.6351 108.662C100.605 109.225 104.125 111.339 107.978 112.327C115.127 114.16 123.104 112.926 129.259 108.798C149.595 95.3933 140.383 65.0782 124.179 52.1047Z" fill="#D08B5B"/>
<path fill-rule="evenodd" clip-rule="evenodd" d="M122.679 112.546C122.888 112.474 123.096 112.399 123.304 112.322C123.317 112.37 123.339 112.416 123.365 112.461C123.395 112.534 123.424 112.603 123.456 112.674C123.196 112.676 122.935 112.629 122.679 112.546ZM122.261 23.5912C122.168 23.3836 122.062 23.1844 121.943 22.9919C122.233 23.0865 122.525 23.2171 122.788 23.3853C122.61 23.4455 122.436 23.5141 122.261 23.5912ZM77.7608 50.751C77.7488 50.7489 77.7369 50.7471 77.7252 50.7451C77.8779 50.3372 78.1501 49.9523 78.4507 49.6742C78.5047 49.6243 78.5631 49.5781 78.6196 49.5303C78.3005 49.9114 78.011 50.3179 77.7608 50.751ZM159.184 93.3983C159.033 91.9659 158.841 90.5391 158.594 89.1205C158.356 87.762 158.155 86.3093 157.464 85.1043C156.779 83.9035 156.093 82.7375 155.277 81.6813C155.393 81.1426 155.548 80.6356 155.682 80.2269C156.452 77.8747 157.211 74.8865 155.609 72.7005C155.238 72.194 154.784 71.8058 154.265 71.4555C154.044 71.3061 153.677 71.1704 153.507 70.9644C153.388 70.8184 153.429 70.8974 153.424 70.8253C153.394 70.4372 154.302 69.6181 154.515 69.3107C154.912 68.7421 155.209 68.1018 155.435 67.4475C156.328 64.858 155.721 62.0056 155.183 59.4107C154.898 58.0354 154.586 56.6565 154.482 55.2518C154.386 53.933 154.566 52.6451 154.673 51.3331C154.776 50.0382 154.748 48.7023 154.195 47.5036C153.924 46.9197 153.515 46.4046 153.016 46.0027C152.53 45.6096 151.923 45.3812 151.449 44.9897C150.976 44.5998 151.111 44.0727 151.235 43.5335C151.404 42.8019 151.618 42.0756 151.639 41.32C151.677 40.0029 151.141 38.72 150.303 37.7242C149.439 36.6955 148.206 35.9999 146.873 35.8436C146.264 35.7715 145.664 35.8936 145.057 35.8507C144.459 35.8095 144.329 35.509 144.215 34.9595C143.955 33.7007 144.06 32.4575 143.443 31.2829C142.895 30.2388 141.92 29.5312 140.842 29.114C138.868 28.3482 136.57 28.5061 134.488 28.9576C133.257 25.331 129.419 22.9527 125.642 22.9234C125.053 21.9206 124.053 21.1719 122.915 20.7321C121.031 20.0022 119.035 20.4283 117.072 20.4283H117.063C116.866 20.4161 116.669 20.4112 116.473 20.4129C116.288 20.4024 116.102 20.387 115.917 20.3665C113.684 20.1019 111.474 19.1849 109.261 20.0832C108.275 20.4832 107.49 21.0998 106.993 21.8863C106.244 22.0904 105.506 22.3241 104.782 22.5954C101.641 22.6777 98.5312 24.3658 96.9436 27.1015C94.7084 26.8473 92.2822 27.2783 90.8043 29.1089C90.4192 29.5852 90.121 30.1448 89.9236 30.739C88.4156 31.2277 87.0213 32.0986 86.1081 33.4102C85.2752 34.6071 85.1152 36.1546 85.6782 37.4395C84.3327 38.4167 83.2814 39.8158 82.7752 41.4677C82.467 42.4714 82.4213 43.5084 82.6193 44.4963C81.2416 44.8027 79.9238 45.3706 78.7562 46.2228C77.5327 47.1157 76.0046 48.5367 75.9241 50.1721C75.9181 50.2921 75.9227 50.4121 75.9323 50.5319C73.2388 50.3421 70.4922 50.7996 68.6716 52.9644C67.3045 54.5888 66.7103 56.6806 67.0752 58.5849C63.8703 59.2375 60.8399 60.917 58.7262 63.4C57.1898 65.2048 55.8246 67.499 55.9067 69.9562C55.9324 70.6965 56.1055 71.4417 56.4053 72.1303V72.132C56.2768 72.3742 56.1448 72.6438 56.018 72.9306C54.0328 74.3231 52.5904 76.5059 51.7785 78.9115C51.1226 80.8606 50.7098 83.3916 51.4102 85.3749C51.5166 85.6771 51.6519 85.9623 51.8095 86.2272C51.6775 86.3678 51.5526 86.5083 51.431 86.6513C50.093 88.2186 48.7381 90.1938 48.8307 92.3518C48.8684 93.2212 49.1903 94.0954 49.7163 94.8129C47.8662 96.6938 46.3761 99.0663 46.5232 101.717C46.65 104.023 47.9126 106.365 49.8909 107.472C49.5604 109.25 50.0023 111.125 51.3828 112.512C52.0716 113.206 52.8833 113.663 53.7434 113.907C53.9353 116 55.7885 117.685 57.7566 118.169C58.1234 118.26 58.49 118.315 58.8546 118.34C60.6258 119.211 62.7378 119.111 64.545 118.313C65.0777 118.991 65.7714 119.545 66.5799 119.941C66.9071 120.103 67.2533 120.237 67.6145 120.345C70.1668 121.102 72.7843 120.075 75.0161 118.877C75.088 118.838 75.2199 118.791 75.3364 118.738C75.6448 119.082 76.2066 119.424 76.4995 119.592C77.4931 120.164 78.7076 120.43 79.8484 120.355C81.1863 120.266 82.3663 119.822 83.4593 119.193C83.6186 119.22 83.7794 119.236 83.9403 119.244C84.9681 119.299 85.8846 118.973 86.7085 118.457C87.2529 118.53 87.8119 118.522 88.3766 118.423C89.6221 118.741 90.8352 118.236 91.8094 117.434C92.2416 117.079 92.6064 116.661 92.9972 116.263C93.4027 115.848 93.7114 115.753 94.1851 115.475C95.308 114.817 95.4429 113.149 94.9562 111.944C95.0488 111.733 95.1024 111.498 95.1024 111.237C95.0984 108.959 94.0519 106.871 92.7673 105.05C92.1937 104.237 91.5697 103.442 90.8864 102.721C90.3363 102.142 89.5644 101.203 88.7503 100.968C88.7007 100.932 88.6496 100.895 88.5976 100.861C88.756 100.308 88.8478 99.7448 88.8088 99.1695C88.7674 98.5788 88.5772 98.019 88.2726 97.5421C89.2947 95.5547 89.7269 93.3756 89.5214 91.1022C90.3534 89.9192 90.9839 88.6119 91.3097 87.1803C91.5096 86.2938 91.6249 85.3619 91.6095 84.4527C91.6022 84.0172 91.4429 83.4655 91.4397 83.0138C91.4641 83.1568 91.6485 82.6246 91.7208 82.4921C92.5463 80.9549 93.6066 79.7565 93.7829 77.9446C93.8853 76.8852 93.6359 75.7142 93.0021 74.8453C93.4076 73.2414 93.4027 71.5188 92.7641 69.989C92.5926 69.5803 92.396 69.1801 92.1693 68.8007C92.2741 68.4813 92.37 68.1584 92.4927 67.868C92.5414 67.753 92.5894 67.6364 92.6373 67.5196C93.1012 67.1091 93.5327 66.661 93.8959 66.2213C94.7011 65.2477 95.3161 64.1316 95.3933 62.8452C95.4307 62.2013 95.2804 61.5847 95.0935 60.9736C95.0114 60.6971 94.9611 60.3897 94.8636 60.1201C94.8091 59.9706 94.6767 59.8179 94.6312 59.6771C94.6206 59.6462 94.6117 59.6204 94.6052 59.5998C94.6117 59.5793 94.6174 59.5363 94.6174 59.4554C94.619 58.8389 94.6994 58.2362 94.7027 57.6422C95.2666 58.2123 95.945 58.638 96.7153 58.8872C98.2687 59.3868 99.8897 59.1602 101.265 58.3892C102.745 59.4058 104.408 60.326 106.152 60.6954C107.188 60.9151 108.227 60.8242 109.266 60.9599C110.299 61.0955 111.298 61.5471 112.271 61.8992C114.436 62.684 116.595 63.4892 118.767 64.2535C120.521 64.87 122.42 65.3594 124.256 65.0125C124.772 65.8091 125.441 66.4824 126.3 66.977C126.914 67.329 127.589 67.5676 128.287 67.6862C128.903 67.7909 129.626 67.7497 130.126 68.1739C130.614 68.586 130.919 69.2006 131.358 69.6645C131.846 70.183 132.449 70.633 133.081 70.9558C133.588 71.2151 134.106 71.4021 134.631 71.5242C134.585 72.6971 134.54 73.8682 134.527 75.0427C134.501 77.5944 134.511 80.1465 134.477 82.6985C134.443 85.2408 134.362 87.7848 134.228 90.3246C134.102 92.7077 133.924 95.0997 133.357 97.4251C131.476 105.141 124.43 110.665 116.544 110.947C114.203 111.03 111.885 110.7 109.646 110.011C107.327 109.294 105.256 107.821 102.879 107.368C102.257 107.251 101.671 107.878 102.027 108.48C102.641 109.516 103.386 110.148 104.405 110.771C105.472 111.422 106.661 111.905 107.834 112.327C109.992 113.103 112.276 113.553 114.566 113.678C116.313 113.774 118.067 113.655 119.778 113.325C119.898 113.694 120.111 114.053 120.271 114.395C120.296 114.444 120.376 114.41 120.361 114.358C120.335 114.273 120.318 114.197 120.311 114.135C120.886 114.887 121.775 115.407 122.688 115.66C123.333 115.839 124.016 115.893 124.679 115.818C124.894 115.794 125.097 115.758 125.299 115.714C125.974 116.306 126.837 116.701 127.704 116.898C127.555 117.805 128.002 118.794 129.039 119.051C129.474 119.16 129.891 119.162 130.31 119.122C130.647 119.28 131.01 119.404 131.395 119.488C131.897 119.597 132.497 119.457 132.876 119.093C133.083 119.239 133.276 119.34 133.468 119.572C134.258 120.527 135.961 119.766 136.035 118.662C136.286 118.662 136.537 118.665 136.789 118.674C136.849 118.701 136.91 118.729 136.971 118.758C138.072 119.272 139.213 119.72 140.431 119.316C140.655 119.242 140.861 119.148 141.048 119.038C141.906 119.116 142.752 119.117 143.622 118.835C144.136 118.669 144.619 118.405 145.022 118.058C146.365 118.453 147.782 118.631 149.117 118.141C150.118 117.776 150.923 117.199 151.49 116.438C152.357 116.469 153.237 116.26 154.03 115.845C155.387 115.142 156.337 113.803 157 112.463C158.46 109.504 159.323 106.325 159.662 103.048C159.996 99.8187 159.52 96.6077 159.184 93.3983Z" fill="black"/>
<path fill-rule="evenodd" clip-rule="evenodd" d="M117.812 100.223C116.658 99.7522 115.629 98.9665 114.875 97.963C114.614 97.6136 114.546 97.2456 114.601 96.9084C114.662 96.5298 114.887 96.1861 115.192 95.9562C115.499 95.7254 115.882 95.6108 116.253 95.6693C116.575 95.7197 116.895 95.896 117.15 96.2617L117.202 96.3348C117.65 96.9409 118.233 97.4373 118.897 97.7583C119.537 98.067 120.254 98.2108 120.995 98.1272C122.406 97.9679 123.38 97.2041 124.414 96.1666C124.542 96.0358 124.67 95.9009 124.799 95.7636C124.88 95.6393 124.993 95.5588 125.119 95.5174C125.258 95.4703 125.416 95.4735 125.561 95.5239C125.699 95.5718 125.824 95.6645 125.907 95.7872C125.986 95.9033 126.031 96.0471 126.017 96.2129C125.922 97.287 125.361 98.2466 124.563 98.9998C123.676 99.8366 122.501 100.415 121.396 100.618C120.178 100.842 118.936 100.682 117.812 100.223ZM121.971 83.6411C123.267 84.4292 125.242 86.2671 123.847 88.2211C122.206 89.9445 119.843 87.9693 118.678 87.0755C117.598 86.3833 116.385 88.1643 117.387 88.9727C125.802 95.2054 129.217 83.8475 122.626 82.7148C121.9 82.5897 121.631 83.3973 121.971 83.6411ZM106.891 76.3911C107.034 74.6127 109.741 74.2088 110.011 75.9686C110.251 77.5449 109.968 78.9928 109.258 80.4122C108.58 81.7683 106.875 81.1362 106.746 79.9012C106.573 78.2461 106.802 77.497 106.891 76.3911ZM127.5 75.6037C127.878 75.1092 128.423 74.7715 129.075 74.9624C131.116 75.5587 130.514 78.4565 129.798 79.8662C129.409 80.6324 128.15 80.8266 127.581 80.1522C126.654 79.0529 126.211 76.8564 127.389 75.7732C127.421 75.7173 127.457 75.6607 127.5 75.6037ZM109.229 68.6094L109.552 68.5529C110.549 68.3804 111.788 68.2146 112.493 69.0165C112.868 69.4417 112.996 70.2319 112.493 70.6389C111.609 71.3549 110.631 71.0775 109.571 71.1381C108.698 71.1882 107.859 71.3328 107.018 71.5734C105.172 72.1011 103.668 73.0644 102.091 74.1223C101.885 74.261 101.674 73.9964 101.772 73.8029C102.682 72.0199 104.445 70.5553 106.212 69.6625C107.155 69.186 108.186 68.7906 109.229 68.6094ZM125.64 67.8106L125.887 67.8611C128.571 68.4224 132.059 69.5436 133.33 72.1812C133.378 72.5541 133.327 72.6341 133.285 72.6863L133.271 72.7037C133.237 72.7483 133.209 72.8097 133.049 72.8605C133.003 72.8498 132.958 72.8385 132.912 72.8265C132.329 72.6737 131.869 72.4633 131.423 72.245L130.938 72.0065C130.377 71.7311 129.811 71.4658 129.21 71.2699C127.93 70.8519 126.612 70.5575 125.274 70.4003C124.984 70.3662 124.705 70.2683 124.485 70.1005C124.275 69.9412 124.116 69.7207 124.043 69.4275C123.949 69.0483 123.975 68.761 124.179 68.4188C124.332 68.1618 124.551 67.9836 124.802 67.8814C125.058 67.7771 125.35 67.7525 125.64 67.8106Z" fill="black"/>
<circle cx="99" cy="99" r="97.5" stroke="black" stroke-width="3"/>
</g>
</svg>
