<svg width="80" height="80" viewBox="0 0 80 80" fill="none" xmlns="http://www.w3.org/2000/svg">
<g clip-path="url(#clip0_264_1272)">
<path d="M79.7386 58.7119L68.5744 47.5477C64.5872 43.5605 57.8089 45.1555 56.214 50.3388C55.0178 53.9274 51.0306 55.921 47.4421 55.1234C39.4676 53.1298 28.7021 42.763 26.7085 34.3898C25.5123 30.8012 27.9046 26.814 31.4932 25.6179C36.6766 24.023 38.2714 17.2448 34.2842 13.2575L23.12 2.09329C19.9302 -0.697765 15.1455 -0.697765 12.3545 2.09329L4.77873 9.66903C-2.79701 17.6435 5.57617 38.7758 24.3161 57.5158C43.0561 76.2557 64.1884 85.0278 72.1629 77.0532L79.7386 69.4774C82.5298 66.2877 82.5298 61.503 79.7386 58.7119Z" fill="black"/>
</g>
<defs>
<clipPath id="clip0_264_1272">
<rect width="80" height="80" fill="white"/>
</clipPath>
</defs>
</svg>
