<svg width="47" height="47" viewBox="0 0 47 47" fill="none" xmlns="http://www.w3.org/2000/svg">
<path d="M3.20428 14.0309L4.05933 16.3802L31.4561 6.40855L40.5723 31.4551L15.5248 40.5717L5.55351 13.1759L3.20428 14.0309L4.05933 16.3802L3.20428 14.0309L0.85505 14.886L11.6814 44.631C11.9067 45.2503 12.3779 45.7641 12.9739 46.042C13.5712 46.3205 14.2673 46.3502 14.8856 46.1252L44.6316 35.2985C45.25 35.0735 45.7641 34.6033 46.0417 34.0063C46.3205 33.41 46.3512 32.7135 46.1258 32.0943L35.2995 2.34922C35.0745 1.7309 34.6033 1.21708 34.006 0.938562C33.41 0.660644 32.7135 0.629986 32.0952 0.855036L2.34923 11.6817C1.73091 11.9067 1.21707 12.3779 0.938212 12.9743C0.660636 13.5712 0.630001 14.2677 0.85505 14.886L3.20428 14.0309Z" fill="#EC7495"/>
</svg>
